#N canvas 481 60 749 699 10;
#X obj 48 177 r timbre;
#X floatatom 57 473 9 0 0 0 ms - -, f 9;
#X floatatom 72 525 9 0 0 0 fok - -, f 9;
#X floatatom 98 577 9 0 0 0 fusu - -, f 9;
#X floatatom 231 535 9 0 0 0 f1 - -, f 9;
#X floatatom 242 558 9 0 0 0 f2 - -, f 9;
#X floatatom 259 582 9 0 0 0 f3 - -, f 9;
#X floatatom 270 605 9 0 0 0 f4 - -, f 9;
#X floatatom 287 628 9 0 0 0 f5 - -, f 9;
#X floatatom 298 651 9 0 0 0 f6 - -, f 9;
#X obj 622 498 metro;
#X obj 599 500 tgl 15 0 empty empty empty 17 7 0 10 -262144 -1 -1 0
1;
#X obj 627 474 r ms;
#X obj 57 494 s ms;
#X floatatom 659 473 5 0 0 0 - - -, f 5;
#X obj 661 499 bng 15 250 50 0 empty empty empty 17 7 0 10 -262144
-1 -1;
#X obj 563 425 f;
#X obj 591 426 + 1;
#X msg 618 426 1;
#X floatatom 563 447 5 0 0 0 - - -, f 5;
#X obj 600 448 sel;
#X obj 442 498 metro;
#X obj 419 500 tgl 15 0 empty empty empty 17 7 0 10 -262144 -1 -1 0
1;
#X obj 447 474 r ms;
#X floatatom 479 473 5 0 0 0 - - -, f 5;
#X obj 481 499 bng 15 250 50 0 empty empty empty 17 7 0 10 -262144
-1 -1;
#X obj 361 398 f;
#X obj 389 399 + 1;
#X msg 417 399 1;
#X floatatom 361 420 5 0 0 0 - - -, f 5;
#X obj 398 421 sel;
#X obj 627 448 r fusu;
#X obj 444 450 r fok;
#X floatatom 482 451 5 0 0 0 - - -, f 5;
#X floatatom 672 448 5 0 0 0 - - -, f 5;
#X obj 71 547 s fok;
#X obj 98 598 s fusu;
#X obj 442 518 t b b;
#X obj 623 520 t b b;
#X obj 521 661 dac~;
#X obj 510 630 +~;
#X obj 543 629 +~;
#N canvas 721 121 501 633 fichas 0;
#X obj 236 553 outlet~ L;
#X obj 256 583 outlet~ R;
#X obj 252 460 * 1.5708;
#X obj 268 493 sin;
#X obj 234 493 cos;
#X obj 225 517 *~;
#X obj 255 517 *~;
#X msg 310 459 0.75;
#X obj 312 434 r lb5;
#X obj 128 310 osc~;
#X obj 137 334 osc~;
#X obj 148 360 osc~;
#X obj 157 384 osc~;
#X obj 211 310 *~;
#X obj 221 335 *~;
#X obj 233 360 *~;
#X obj 241 385 *~;
#X obj 83 270 t b b b b;
#X obj 336 219 vline~;
#X msg 335 194 0 \, 1 \$1 \, 0 \$2 \$1;
#X obj 335 171 pack \$1 \$2;
#X floatatom 387 120 5 0 0 0 - - -, f 5;
#X obj 387 148 t f f;
#X floatatom 296 143 5 0 0 0 - - -, f 5;
#X obj 211 310 *~;
#X obj 221 335 *~;
#X obj 233 360 *~;
#X obj 241 385 *~;
#X obj 181 335 *~;
#X obj 193 360 *~;
#X obj 201 385 *~;
#X obj 171 310 *~;
#X floatatom 169 216 5 0 0 0 - - -, f 5;
#X floatatom 296 241 5 0 0 0 - - -, f 5;
#X obj 39 193 r lb4;
#X obj 76 193 bng 15 250 50 0 empty empty empty 17 7 0 10 -262144 -1
-1;
#X obj 42 214 t b b;
#X obj 327 54 inlet bmetro;
#X obj 161 430 hip~ 40;
#X obj 239 237 * 0.12;
#X obj 249 260 * 0.0765;
#X obj 190 237 * 0.45;
#X obj 200 260 * 0.23;
#X msg 163 194 0.87;
#X obj 162 450 hip~ 30;
#X obj 161 472 hip~ 20;
#X obj 161 492 hip~ 10;
#X msg 91 310 567;
#X msg 99 334 678;
#X msg 104 358 789;
#X msg 115 383 890;
#X floatatom 298 495 5 0 0 0 - - -, f 5;
#X obj 383 217 pow~ 3;
#X msg 387 95 210;
#X obj 330 147 * 0.08;
#X obj 250 423 *~ 1;
#X connect 2 0 3 0;
#X connect 2 0 4 0;
#X connect 3 0 6 1;
#X connect 3 0 51 0;
#X connect 4 0 5 1;
#X connect 5 0 0 0;
#X connect 6 0 1 0;
#X connect 7 0 2 0;
#X connect 8 0 7 0;
#X connect 9 0 31 0;
#X connect 10 0 28 0;
#X connect 11 0 29 0;
#X connect 12 0 30 0;
#X connect 13 0 55 0;
#X connect 14 0 55 0;
#X connect 15 0 55 0;
#X connect 16 0 55 0;
#X connect 17 0 47 0;
#X connect 17 1 48 0;
#X connect 17 2 49 0;
#X connect 17 3 50 0;
#X connect 18 0 52 0;
#X connect 19 0 18 0;
#X connect 20 0 19 0;
#X connect 21 0 22 0;
#X connect 22 0 54 0;
#X connect 22 1 20 1;
#X connect 28 0 14 0;
#X connect 29 0 15 0;
#X connect 30 0 16 0;
#X connect 31 0 13 0;
#X connect 32 0 39 0;
#X connect 32 0 40 0;
#X connect 32 0 41 0;
#X connect 32 0 42 0;
#X connect 34 0 36 0;
#X connect 35 0 36 0;
#X connect 36 0 17 0;
#X connect 36 1 43 0;
#X connect 37 0 53 0;
#X connect 38 0 44 0;
#X connect 39 0 29 1;
#X connect 39 0 33 0;
#X connect 40 0 30 1;
#X connect 41 0 31 1;
#X connect 42 0 28 1;
#X connect 43 0 32 0;
#X connect 44 0 45 0;
#X connect 45 0 46 0;
#X connect 46 0 5 0;
#X connect 46 0 6 0;
#X connect 47 0 9 0;
#X connect 48 0 10 0;
#X connect 49 0 11 0;
#X connect 50 0 12 0;
#X connect 52 0 13 1;
#X connect 52 0 14 1;
#X connect 52 0 15 1;
#X connect 52 0 16 1;
#X connect 53 0 21 0;
#X connect 54 0 20 0;
#X connect 54 0 23 0;
#X connect 55 0 38 0;
#X restore 557 582 pd fichas;
#X msg 379 480 1;
#X msg 411 475 0;
#X msg 549 480 1;
#X msg 581 475 0;
#X obj 531 347 bng 15 250 50 0 empty empty empty 17 7 0 10 -262144
-1 -1;
#X obj 520 370 t b b b;
#X obj 155 438 unpack 1 2 3 4 5 6 7 8 9;
#X text 21 11 1er número - ms = tiempo en ms;
#X msg 85 207 678 4 7 1 1 1 2 2 0;
#X text 18 32 2do número - fok = Canti dad de fichas correctas;
#X text 17 51 3er número - fusu = Cantidad de fichas colocadas;
#X obj 199 412 bng 15 250 50 0 empty empty empty 17 7 0 10 -262144
-1 -1;
#X obj 156 390 route list bang;
#X obj 170 363 bng 15 250 50 0 empty empty empty 17 7 0 10 -262144
-1 -1;
#N canvas 729 238 490 429 Notas 0;
#X obj 14 56 inlet bmetro;
#X obj 39 81 bng 15 250 50 0 empty empty empty 17 7 0 10 -262144 -1
-1;
#X obj 319 56 s durBajo;
#X floatatom 318 37 12 0 0 0 - - -, f 12;
#N canvas 685 62 262 216 cuerda1 0;
#X obj 62 160 outlet~;
#X obj 55 29 inlet nrodeBeat;
#X floatatom 55 51 5 0 0 0 - - -, f 5;
#N canvas 0 22 620 552 sintesisCuerda1 0;
#X obj 312 185 osc~;
#X obj 350 186 *~;
#X obj 312 215 osc~;
#X obj 350 216 *~;
#X obj 312 245 osc~;
#X obj 350 246 *~;
#X obj 312 275 osc~;
#X obj 350 276 *~;
#X obj 312 301 osc~;
#X obj 350 302 *~;
#X obj 312 331 osc~;
#X obj 350 331 *~;
#X obj 312 361 osc~;
#X obj 350 362 *~;
#X obj 312 391 osc~;
#X obj 350 392 *~;
#X obj 312 421 osc~;
#X obj 350 422 *~;
#X obj 313 452 osc~;
#X obj 348 453 *~;
#X obj 316 481 osc~;
#X obj 351 481 *~;
#X obj 504 459 outlet~;
#X obj 258 189 *~ 1;
#X obj 258 219 *~ 2;
#X obj 259 249 *~ 3;
#X obj 256 279 *~ 4;
#X obj 258 305 *~ 5;
#X obj 257 335 *~ 6;
#X obj 258 365 *~ 7;
#X obj 257 395 *~ 8;
#X obj 257 425 *~ 9;
#X obj 258 454 *~ 10;
#X obj 256 482 *~ 11;
#X obj 127 145 t f f f f f f f f f f f;
#X obj 155 14 inlet notas;
#X obj 194 58 mtof;
#X floatatom 188 82 5 0 0 0 - - -, f 5;
#X floatatom 105 46 5 0 0 0 - - -, f 5;
#N canvas 0 27 1256 740 c-amp_bajoC1 0;
#X text 16 328 1;
#X text 18 350 2;
#X text 21 373 3;
#X text 23 396 4;
#X text 26 422 5;
#X text 29 447 6;
#X text 30 471 7;
#X text 32 493 8;
#X text 32 565 11;
#X text 30 540 10;
#X text 34 518 9;
#X obj 31 327 outlet~;
#X obj 33 349 outlet~;
#X obj 36 373 outlet~;
#X obj 38 396 outlet~;
#X obj 40 421 outlet~;
#X obj 42 447 outlet~;
#X obj 45 470 outlet~;
#X obj 47 493 outlet~;
#X obj 48 517 outlet~;
#X obj 51 540 outlet~;
#X obj 53 563 outlet~;
#X obj 875 667 inlet b;
#X text 181 275 1;
#X text 369 270 2;
#X text 549 217 3;
#X text 750 217 4;
#X text 941 203 5;
#X text 1126 169 6;
#X obj 197 298 *~;
#X obj 384 295 *~;
#X obj 568 263 *~;
#X obj 778 247 *~;
#X obj 967 226 *~;
#X obj 1150 196 *~;
#X obj 252 584 *~;
#X obj 427 556 *~;
#X obj 605 535 *~;
#X obj 814 507 *~;
#X obj 1010 478 *~;
#X obj 409 629 bng 15 250 50 0 empty empty empty 17 7 0 10 -262144
-1 -1;
#X obj 406 647 s lbok;
#X obj 1028 632 r durBajo;
#X msg 224 298 0.296;
#X msg 412 295 0.21;
#X obj 197 275 vline~;
#X msg 196 252 0 \, 1 \$1 \, 0 \$2 \$1;
#X obj 195 230 pack;
#X obj 196 206 f;
#X floatatom 1093 634 5 0 0 0 - - -, f 5;
#X obj 385 270 vline~;
#X msg 384 247 0 \, 1 \$1 \, 0 \$2 \$1;
#X obj 383 225 pack;
#X obj 567 241 vline~;
#X msg 568 218 0 \, 1 \$1 \, 0 \$2 \$1;
#X obj 567 196 pack;
#X obj 777 221 vline~;
#X msg 778 198 0 \, 1 \$1 \, 0 \$2 \$1;
#X obj 777 176 pack;
#X obj 966 202 vline~;
#X msg 967 179 0 \, 1 \$1 \, 0 \$2 \$1;
#X obj 966 157 pack;
#X obj 1149 173 vline~;
#X msg 1150 150 0 \, 1 \$1 \, 0 \$2 \$1;
#X obj 1149 128 pack;
#X obj 252 560 vline~;
#X msg 251 537 0 \, 1 \$1 \, 0 \$2 \$1;
#X obj 250 515 pack;
#X obj 429 533 vline~;
#X msg 428 510 0 \, 1 \$1 \, 0 \$2 \$1;
#X obj 427 488 pack;
#X obj 604 512 vline~;
#X msg 605 488 0 \, 1 \$1 \, 0 \$2 \$1;
#X obj 604 466 pack;
#X obj 815 485 vline~;
#X msg 816 462 0 \, 1 \$1 \, 0 \$2 \$1;
#X obj 815 440 pack;
#X obj 1009 455 vline~;
#X msg 1010 432 0 \, 1 \$1 \, 0 \$2 \$1;
#X obj 1009 410 pack;
#X msg 1112 872 1;
#X obj 1205 659 r lb11;
#X obj 1205 681 t b b b b b b b b b b b;
#X text 985 456 11;
#X text 791 486 10;
#X text 587 514 9;
#X text 407 533 8;
#X text 229 559 7;
#X obj 1260 658 bng 15 250 50 0 empty empty empty 17 7 0 10 -262144
-1 -1;
#X obj 446 199 * 0.987;
#X obj 1028 655 t f f f f f f f f f f f;
#X obj 843 153 * 0.765;
#X obj 1027 130 * 0.654;
#X obj 1220 102 * 0.567;
#X obj 628 174 * 0.876;
#X obj 317 490 * 0.456;
#X obj 492 464 * 0.345;
#X obj 670 439 * 0.234;
#X obj 878 416 * 0.123;
#X obj 1076 385 * 0.098;
#X obj 139 127 bng 15 250 50 0 empty empty empty 17 7 0 10 -262144
-1 -1;
#X obj 168 160 * 0.1;
#X obj 231 206 -;
#X obj 193 182 t b f f;
#X obj 231 228 * -1;
#X obj 384 201 f;
#X obj 350 111 bng 15 250 50 0 empty empty empty 17 7 0 10 -262144
-1 -1;
#X obj 352 154 * 0.1;
#X obj 419 201 -;
#X obj 381 177 t b f f;
#X obj 419 223 * -1;
#X obj 566 174 f;
#X obj 534 86 bng 15 250 50 0 empty empty empty 17 7 0 10 -262144 -1
-1;
#X obj 536 127 * 0.1;
#X obj 601 174 -;
#X obj 563 150 t b f f;
#X obj 601 196 * -1;
#X obj 777 153 f;
#X obj 750 65 bng 15 250 50 0 empty empty empty 17 7 0 10 -262144 -1
-1;
#X obj 752 106 * 0.1;
#X obj 816 153 -;
#X obj 778 129 t b f f;
#X obj 816 175 * -1;
#X obj 961 131 f;
#X obj 940 42 bng 15 250 50 0 empty empty empty 17 7 0 10 -262144 -1
-1;
#X obj 1000 131 -;
#X obj 962 107 t b f f;
#X obj 1000 153 * -1;
#X obj 875 689 t b b b b b b b b b b b;
#X obj 1152 102 f;
#X obj 1125 16 bng 15 250 50 0 empty empty empty 17 7 0 10 -262144
-1 -1;
#X obj 1127 57 * 0.1;
#X obj 1191 102 -;
#X obj 1153 78 t b f f;
#X obj 1191 124 * -1;
#X obj 251 491 f;
#X obj 223 403 bng 15 250 50 0 empty empty empty 17 7 0 10 -262144
-1 -1;
#X obj 225 444 * 0.1;
#X obj 290 491 -;
#X obj 252 467 t b f f;
#X obj 290 513 * -1;
#X obj 426 465 f;
#X obj 398 377 bng 15 250 50 0 empty empty empty 17 7 0 10 -262144
-1 -1;
#X obj 400 418 * 0.1;
#X obj 465 465 -;
#X obj 427 441 t b f f;
#X obj 465 487 * -1;
#X obj 604 439 f;
#X obj 575 352 bng 15 250 50 0 empty empty empty 17 7 0 10 -262144
-1 -1;
#X obj 577 393 * 0.1;
#X obj 643 439 -;
#X obj 605 415 t b f f;
#X obj 643 461 * -1;
#X obj 813 417 f;
#X obj 786 328 bng 15 250 50 0 empty empty empty 17 7 0 10 -262144
-1 -1;
#X obj 788 369 * 0.1;
#X obj 852 417 -;
#X obj 814 393 t b f f;
#X obj 849 440 * -1;
#X obj 1011 386 f;
#X obj 984 300 bng 15 250 50 0 empty empty empty 17 7 0 10 -262144
-1 -1;
#X obj 986 341 * 0.1;
#X obj 1050 386 -;
#X obj 1012 362 t b f f;
#X obj 1050 408 * -1;
#X obj 139 183 * 1;
#X text 60 51 duración mínima de ataque \, Armónico 1;
#X obj 201 11 r lb10;
#X obj 352 176 +;
#X obj 167 182 +;
#X obj 535 149 +;
#X obj 300 176 * 0.987;
#X obj 751 128 +;
#X obj 936 107 +;
#X obj 1126 79 +;
#X obj 224 466 +;
#X obj 399 440 +;
#X obj 576 415 +;
#X obj 787 391 +;
#X obj 985 363 +;
#X obj 485 149 * 0.876;
#X obj 699 128 * 0.765;
#X obj 885 107 * 0.654;
#X obj 1075 78 * 0.567;
#X obj 936 365 * 0.098;
#X obj 735 391 * 0.123;
#X obj 526 414 * 0.234;
#X obj 349 441 * 0.345;
#X obj 172 466 * 0.456;
#X obj 849 689 bng 15 250 50 0 empty empty empty 17 7 0 10 -262144
-1 -1;
#X msg 595 264 0.198;
#X msg 806 246 0.145;
#X msg 998 226 0.129;
#X msg 1178 196 0.118;
#X msg 281 583 0.09108;
#X msg 456 554 0.0765;
#X msg 632 536 0.0345;
#X msg 840 508 0.0123;
#X msg 1039 478 0.00987;
#X obj 752 84 random 50;
#X obj 536 105 random 60;
#X obj 352 132 random 70;
#X obj 168 138 random 80;
#X obj 936 86 * 0.1;
#X obj 276 276 r powC1;
#X obj 56 22 s powC1;
#X obj 157 11 t b b;
#X obj 465 269 r powC1;
#X obj 646 242 r powC1;
#X obj 104 161 r minAtC1;
#X obj 29 71 s minAtC1;
#X obj 289 154 r minAtC1;
#X obj 474 127 r minAtC1;
#X obj 688 106 r minAtC1;
#X obj 874 85 r minAtC1;
#X obj 1059 57 r minAtC1;
#X obj 924 342 r minAtC1;
#X obj 724 369 r minAtC1;
#X obj 515 392 r minAtC1;
#X obj 337 419 r minAtC1;
#X obj 104 161 r minAtC1;
#X obj 170 444 r minAtC1;
#X msg 30 51 13;
#X floatatom 974 387 5 0 0 0 - - -, f 5;
#X obj 986 319 random 25;
#X obj 788 347 random 25;
#X obj 577 371 random 25;
#X obj 400 396 random 25;
#X obj 225 422 random 30;
#X obj 1127 35 random 30;
#X obj 936 64 random 40;
#X floatatom 212 491 5 0 0 0 - - -, f 5;
#X floatatom 388 466 5 0 0 0 - - -, f 5;
#X floatatom 565 441 5 0 0 0 - - -, f 5;
#X floatatom 776 417 5 0 0 0 - - -, f 5;
#X floatatom 1115 105 5 0 0 0 - - -, f 5;
#X floatatom 925 133 5 0 0 0 - - -, f 5;
#X floatatom 740 154 5 0 0 0 - - -, f 5;
#X floatatom 524 175 5 0 0 0 - - -, f 5;
#X floatatom 341 202 5 0 0 0 - - -, f 5;
#X floatatom 157 204 5 0 0 0 - - -, f 5;
#X obj 432 270 pow~;
#X obj 243 275 pow~;
#X obj 303 559 pow~;
#X obj 478 534 pow~;
#X obj 649 511 pow~;
#X obj 862 484 pow~;
#X obj 1053 455 pow~;
#X obj 1013 203 pow~;
#X obj 1195 171 pow~;
#X obj 824 222 pow~;
#X obj 612 241 pow~;
#X obj 857 222 r powC1;
#X obj 1047 203 r powC1;
#X obj 1229 172 r powC1;
#X obj 336 558 r powC1;
#X obj 511 535 r powC1;
#X obj 683 511 r powC1;
#X obj 895 485 r powC1;
#X obj 1086 454 r powC1;
#X msg 27 25 2;
#X connect 22 0 128 0;
#X connect 29 0 11 0;
#X connect 30 0 12 0;
#X connect 31 0 13 0;
#X connect 32 0 14 0;
#X connect 33 0 15 0;
#X connect 34 0 16 0;
#X connect 35 0 17 0;
#X connect 36 0 18 0;
#X connect 37 0 19 0;
#X connect 38 0 20 0;
#X connect 39 0 21 0;
#X connect 40 0 41 0;
#X connect 42 0 49 0;
#X connect 42 0 90 0;
#X connect 43 0 29 1;
#X connect 44 0 30 1;
#X connect 45 0 242 0;
#X connect 46 0 45 0;
#X connect 47 0 46 0;
#X connect 48 0 47 0;
#X connect 50 0 241 0;
#X connect 51 0 50 0;
#X connect 52 0 51 0;
#X connect 53 0 251 0;
#X connect 54 0 53 0;
#X connect 55 0 54 0;
#X connect 56 0 250 0;
#X connect 57 0 56 0;
#X connect 58 0 57 0;
#X connect 59 0 248 0;
#X connect 60 0 59 0;
#X connect 61 0 60 0;
#X connect 62 0 249 0;
#X connect 63 0 62 0;
#X connect 64 0 63 0;
#X connect 65 0 243 0;
#X connect 66 0 65 0;
#X connect 67 0 66 0;
#X connect 68 0 244 0;
#X connect 69 0 68 0;
#X connect 70 0 69 0;
#X connect 71 0 245 0;
#X connect 72 0 71 0;
#X connect 73 0 72 0;
#X connect 74 0 246 0;
#X connect 75 0 74 0;
#X connect 76 0 75 0;
#X connect 77 0 247 0;
#X connect 78 0 77 0;
#X connect 79 0 78 0;
#X connect 81 0 82 0;
#X connect 82 0 43 0;
#X connect 82 1 44 0;
#X connect 82 2 190 0;
#X connect 82 3 191 0;
#X connect 82 4 192 0;
#X connect 82 5 193 0;
#X connect 82 6 194 0;
#X connect 82 7 195 0;
#X connect 82 8 196 0;
#X connect 82 9 197 0;
#X connect 82 10 198 0;
#X connect 88 0 82 0;
#X connect 89 0 108 1;
#X connect 90 0 99 0;
#X connect 90 1 98 0;
#X connect 90 2 97 0;
#X connect 90 3 96 0;
#X connect 90 4 95 0;
#X connect 90 5 93 0;
#X connect 90 6 92 0;
#X connect 90 7 91 0;
#X connect 90 8 94 0;
#X connect 90 9 89 0;
#X connect 90 10 102 1;
#X connect 91 0 120 1;
#X connect 92 0 125 1;
#X connect 93 0 132 1;
#X connect 94 0 114 1;
#X connect 95 0 138 1;
#X connect 96 0 144 1;
#X connect 97 0 150 1;
#X connect 98 0 156 1;
#X connect 99 0 162 1;
#X connect 100 0 202 0;
#X connect 101 0 169 0;
#X connect 102 0 104 0;
#X connect 103 0 48 0;
#X connect 103 1 48 1;
#X connect 103 2 102 0;
#X connect 104 0 47 1;
#X connect 105 0 52 0;
#X connect 106 0 201 0;
#X connect 107 0 168 0;
#X connect 108 0 110 0;
#X connect 109 0 105 0;
#X connect 109 1 105 1;
#X connect 109 2 108 0;
#X connect 110 0 52 1;
#X connect 111 0 55 0;
#X connect 112 0 200 0;
#X connect 113 0 170 0;
#X connect 114 0 116 0;
#X connect 115 0 111 0;
#X connect 115 1 111 1;
#X connect 115 2 114 0;
#X connect 116 0 55 1;
#X connect 117 0 58 0;
#X connect 118 0 199 0;
#X connect 119 0 172 0;
#X connect 120 0 122 0;
#X connect 121 0 117 0;
#X connect 121 1 117 1;
#X connect 121 2 120 0;
#X connect 122 0 58 1;
#X connect 123 0 61 0;
#X connect 124 0 230 0;
#X connect 125 0 127 0;
#X connect 126 0 123 0;
#X connect 126 1 123 1;
#X connect 126 2 125 0;
#X connect 127 0 61 1;
#X connect 128 0 224 0;
#X connect 128 1 225 0;
#X connect 128 2 226 0;
#X connect 128 3 227 0;
#X connect 128 4 228 0;
#X connect 128 5 229 0;
#X connect 128 6 230 0;
#X connect 128 7 199 0;
#X connect 128 8 200 0;
#X connect 128 9 201 0;
#X connect 128 10 202 0;
#X connect 129 0 64 0;
#X connect 130 0 229 0;
#X connect 131 0 174 0;
#X connect 132 0 134 0;
#X connect 133 0 129 0;
#X connect 133 1 129 1;
#X connect 133 2 132 0;
#X connect 134 0 64 1;
#X connect 135 0 67 0;
#X connect 136 0 228 0;
#X connect 137 0 175 0;
#X connect 138 0 140 0;
#X connect 139 0 135 0;
#X connect 139 1 135 1;
#X connect 139 2 138 0;
#X connect 140 0 67 1;
#X connect 141 0 70 0;
#X connect 142 0 227 0;
#X connect 143 0 176 0;
#X connect 144 0 146 0;
#X connect 145 0 141 0;
#X connect 145 1 141 1;
#X connect 145 2 144 0;
#X connect 146 0 70 1;
#X connect 147 0 73 0;
#X connect 148 0 226 0;
#X connect 149 0 177 0;
#X connect 150 0 152 0;
#X connect 151 0 147 0;
#X connect 151 1 147 1;
#X connect 151 2 150 0;
#X connect 152 0 73 1;
#X connect 153 0 76 0;
#X connect 154 0 225 0;
#X connect 155 0 178 0;
#X connect 156 0 158 0;
#X connect 157 0 153 0;
#X connect 157 1 153 1;
#X connect 157 2 156 0;
#X connect 158 0 76 1;
#X connect 159 0 79 0;
#X connect 160 0 224 0;
#X connect 161 0 179 0;
#X connect 162 0 164 0;
#X connect 163 0 159 0;
#X connect 163 1 159 1;
#X connect 163 2 162 0;
#X connect 164 0 79 1;
#X connect 165 0 169 1;
#X connect 167 0 206 0;
#X connect 168 0 109 0;
#X connect 168 0 239 0;
#X connect 169 0 103 0;
#X connect 169 0 240 0;
#X connect 170 0 115 0;
#X connect 170 0 238 0;
#X connect 171 0 168 1;
#X connect 172 0 121 0;
#X connect 172 0 237 0;
#X connect 173 0 126 0;
#X connect 173 0 236 0;
#X connect 174 0 133 0;
#X connect 174 0 235 0;
#X connect 175 0 139 0;
#X connect 175 0 231 0;
#X connect 176 0 145 0;
#X connect 176 0 232 0;
#X connect 177 0 151 0;
#X connect 177 0 233 0;
#X connect 178 0 157 0;
#X connect 178 0 234 0;
#X connect 179 0 163 0;
#X connect 179 0 223 0;
#X connect 180 0 170 1;
#X connect 181 0 172 1;
#X connect 182 0 173 1;
#X connect 183 0 174 1;
#X connect 184 0 179 1;
#X connect 185 0 178 1;
#X connect 186 0 177 1;
#X connect 187 0 176 1;
#X connect 188 0 175 1;
#X connect 189 0 128 0;
#X connect 190 0 31 1;
#X connect 191 0 32 1;
#X connect 192 0 33 1;
#X connect 193 0 34 1;
#X connect 194 0 35 1;
#X connect 195 0 36 1;
#X connect 196 0 37 1;
#X connect 197 0 38 1;
#X connect 198 0 39 1;
#X connect 199 0 119 0;
#X connect 200 0 113 0;
#X connect 201 0 107 0;
#X connect 202 0 101 0;
#X connect 203 0 173 0;
#X connect 204 0 242 1;
#X connect 206 0 222 0;
#X connect 206 1 260 0;
#X connect 207 0 241 1;
#X connect 208 0 251 1;
#X connect 209 0 165 0;
#X connect 211 0 171 0;
#X connect 212 0 180 0;
#X connect 213 0 181 0;
#X connect 214 0 182 0;
#X connect 215 0 183 0;
#X connect 216 0 184 0;
#X connect 217 0 185 0;
#X connect 218 0 186 0;
#X connect 219 0 187 0;
#X connect 221 0 188 0;
#X connect 222 0 210 0;
#X connect 224 0 161 0;
#X connect 225 0 155 0;
#X connect 226 0 149 0;
#X connect 227 0 143 0;
#X connect 228 0 137 0;
#X connect 229 0 131 0;
#X connect 230 0 203 0;
#X connect 241 0 30 0;
#X connect 242 0 29 0;
#X connect 243 0 35 0;
#X connect 244 0 36 0;
#X connect 245 0 37 0;
#X connect 246 0 38 0;
#X connect 247 0 39 0;
#X connect 248 0 33 0;
#X connect 249 0 34 0;
#X connect 250 0 32 0;
#X connect 251 0 31 0;
#X connect 252 0 250 1;
#X connect 253 0 248 1;
#X connect 254 0 249 1;
#X connect 255 0 243 1;
#X connect 256 0 244 1;
#X connect 257 0 245 1;
#X connect 258 0 246 1;
#X connect 259 0 247 1;
#X connect 260 0 205 0;
#X restore 470 165 pd c-amp_bajoC1;
#X obj 503 369 *~ 1;
#X obj 187 104 t f b;
#X msg 102 24 53;
#X connect 0 0 1 0;
#X connect 1 0 40 0;
#X connect 2 0 3 0;
#X connect 3 0 40 0;
#X connect 4 0 5 0;
#X connect 5 0 40 0;
#X connect 6 0 7 0;
#X connect 7 0 40 0;
#X connect 8 0 9 0;
#X connect 9 0 40 0;
#X connect 10 0 11 0;
#X connect 11 0 40 0;
#X connect 12 0 13 0;
#X connect 13 0 40 0;
#X connect 14 0 15 0;
#X connect 15 0 40 0;
#X connect 16 0 17 0;
#X connect 17 0 40 0;
#X connect 18 0 19 0;
#X connect 19 0 40 0;
#X connect 20 0 21 0;
#X connect 21 0 40 0;
#X connect 23 0 0 0;
#X connect 24 0 2 0;
#X connect 25 0 4 0;
#X connect 26 0 6 0;
#X connect 27 0 8 0;
#X connect 28 0 10 0;
#X connect 29 0 12 0;
#X connect 30 0 14 0;
#X connect 31 0 16 0;
#X connect 32 0 18 0;
#X connect 33 0 20 0;
#X connect 34 0 33 0;
#X connect 34 1 32 0;
#X connect 34 2 31 0;
#X connect 34 3 30 0;
#X connect 34 4 29 0;
#X connect 34 5 28 0;
#X connect 34 6 27 0;
#X connect 34 7 26 0;
#X connect 34 8 25 0;
#X connect 34 9 24 0;
#X connect 34 10 23 0;
#X connect 35 0 42 0;
#X connect 36 0 37 0;
#X connect 37 0 41 0;
#X connect 38 0 36 0;
#X connect 39 0 1 1;
#X connect 39 1 3 1;
#X connect 39 2 5 1;
#X connect 39 3 7 1;
#X connect 39 4 9 1;
#X connect 39 5 11 1;
#X connect 39 6 13 1;
#X connect 39 7 15 1;
#X connect 39 8 17 1;
#X connect 39 9 19 1;
#X connect 39 10 21 1;
#X connect 40 0 22 0;
#X connect 41 0 34 0;
#X connect 41 1 39 0;
#X connect 42 0 38 0;
#X restore 58 114 pd sintesisCuerda1;
#X obj 57 92 bng 15 250 50 0 empty empty empty 17 7 0 10 -262144 -1
-1;
#X obj 60 138 *~ 2;
#X obj 55 70 sel 1;
#X connect 1 0 2 0;
#X connect 2 0 6 0;
#X connect 3 0 5 0;
#X connect 4 0 3 0;
#X connect 5 0 0 0;
#X connect 6 0 4 0;
#X restore 234 86 pd cuerda1;
#X obj 223 112 +~;
#X obj 233 136 +~;
#X obj 240 163 +~;
#N canvas 685 62 262 216 cuerda2 0;
#X obj 62 160 outlet~;
#X obj 55 29 inlet nrodeBeat;
#X floatatom 55 51 5 0 0 0 - - -, f 5;
#X obj 57 92 bng 15 250 50 0 empty empty empty 17 7 0 10 -262144 -1
-1;
#X obj 60 138 *~ 2;
#X obj 55 70 sel 2;
#N canvas 455 98 712 629 sintesisCuerda2 0;
#X obj 312 185 osc~;
#X obj 350 186 *~;
#X obj 312 215 osc~;
#X obj 350 216 *~;
#X obj 312 245 osc~;
#X obj 350 246 *~;
#X obj 312 275 osc~;
#X obj 350 276 *~;
#X obj 312 301 osc~;
#X obj 350 302 *~;
#X obj 312 331 osc~;
#X obj 350 331 *~;
#X obj 312 361 osc~;
#X obj 350 362 *~;
#X obj 312 391 osc~;
#X obj 350 392 *~;
#X obj 312 421 osc~;
#X obj 350 422 *~;
#X obj 313 452 osc~;
#X obj 348 453 *~;
#X obj 316 481 osc~;
#X obj 351 481 *~;
#X obj 37 355 bng 15 250 50 0 on(+)1 empty empty 17 7 0 10 -262144
-1 -1;
#X obj 504 459 outlet~;
#X obj 258 189 *~ 1;
#X obj 258 219 *~ 2;
#X obj 259 249 *~ 3;
#X obj 256 279 *~ 4;
#X obj 258 305 *~ 5;
#X obj 257 335 *~ 6;
#X obj 258 365 *~ 7;
#X obj 257 395 *~ 8;
#X obj 257 425 *~ 9;
#X obj 258 454 *~ 10;
#X obj 256 482 *~ 11;
#X obj 127 145 t f f f f f f f f f f f;
#X obj 155 14 inlet notas;
#X obj 187 104 t b f;
#X obj 194 58 mtof;
#X floatatom 188 82 5 0 0 0 - - -, f 5;
#X floatatom 105 46 5 0 0 0 - - -, f 5;
#X obj 503 369 *~ 1;
#N canvas 7 29 1256 740 c-amp_bajoC2 0;
#X text 16 288 1;
#X text 18 310 2;
#X text 21 333 3;
#X text 23 356 4;
#X text 26 382 5;
#X text 29 407 6;
#X text 30 431 7;
#X text 32 453 8;
#X text 32 525 11;
#X text 30 500 10;
#X text 34 478 9;
#X obj 31 287 outlet~;
#X obj 33 309 outlet~;
#X obj 36 333 outlet~;
#X obj 38 356 outlet~;
#X obj 40 381 outlet~;
#X obj 42 407 outlet~;
#X obj 45 430 outlet~;
#X obj 47 453 outlet~;
#X obj 48 477 outlet~;
#X obj 51 500 outlet~;
#X obj 53 523 outlet~;
#X obj 875 627 inlet b;
#X text 181 235 1;
#X text 369 230 2;
#X text 549 177 3;
#X text 750 177 4;
#X text 941 163 5;
#X text 1126 129 6;
#X obj 197 258 *~;
#X obj 384 255 *~;
#X obj 568 223 *~;
#X obj 778 207 *~;
#X obj 967 186 *~;
#X obj 1150 156 *~;
#X obj 252 544 *~;
#X obj 427 516 *~;
#X obj 605 495 *~;
#X obj 814 467 *~;
#X obj 1010 438 *~;
#X obj 409 589 bng 15 250 50 0 empty empty empty 17 7 0 10 -262144
-1 -1;
#X obj 406 607 s lbok;
#X obj 1028 592 r durBajo;
#X msg 224 258 0.296;
#X msg 412 255 0.21;
#X obj 197 235 vline~;
#X msg 196 212 0 \, 1 \$1 \, 0 \$2 \$1;
#X obj 195 190 pack;
#X obj 196 166 f;
#X floatatom 1093 594 5 0 0 0 - - -, f 5;
#X obj 385 230 vline~;
#X msg 384 207 0 \, 1 \$1 \, 0 \$2 \$1;
#X obj 383 185 pack;
#X obj 567 201 vline~;
#X msg 568 178 0 \, 1 \$1 \, 0 \$2 \$1;
#X obj 567 156 pack;
#X obj 777 181 vline~;
#X msg 778 158 0 \, 1 \$1 \, 0 \$2 \$1;
#X obj 777 136 pack;
#X obj 966 162 vline~;
#X msg 967 139 0 \, 1 \$1 \, 0 \$2 \$1;
#X obj 966 117 pack;
#X obj 1149 133 vline~;
#X msg 1150 110 0 \, 1 \$1 \, 0 \$2 \$1;
#X obj 1149 88 pack;
#X obj 252 520 vline~;
#X msg 251 497 0 \, 1 \$1 \, 0 \$2 \$1;
#X obj 250 475 pack;
#X obj 429 493 vline~;
#X msg 428 470 0 \, 1 \$1 \, 0 \$2 \$1;
#X obj 427 448 pack;
#X obj 604 472 vline~;
#X msg 605 448 0 \, 1 \$1 \, 0 \$2 \$1;
#X obj 604 426 pack;
#X obj 815 445 vline~;
#X msg 816 422 0 \, 1 \$1 \, 0 \$2 \$1;
#X obj 815 400 pack;
#X obj 1009 415 vline~;
#X msg 1010 392 0 \, 1 \$1 \, 0 \$2 \$1;
#X obj 1009 370 pack;
#X msg 1112 832 1;
#X obj 1205 619 r lb11;
#X obj 1205 641 t b b b b b b b b b b b;
#X text 985 416 11;
#X text 791 446 10;
#X text 587 474 9;
#X text 407 493 8;
#X text 229 519 7;
#X obj 1260 618 bng 15 250 50 0 empty empty empty 17 7 0 10 -262144
-1 -1;
#X obj 446 159 * 0.987;
#X obj 1028 615 t f f f f f f f f f f f;
#X obj 843 113 * 0.765;
#X obj 1027 90 * 0.654;
#X obj 1220 62 * 0.567;
#X obj 628 134 * 0.876;
#X obj 317 450 * 0.456;
#X obj 492 424 * 0.345;
#X obj 670 399 * 0.234;
#X obj 878 376 * 0.123;
#X obj 1076 345 * 0.098;
#X obj 139 87 bng 15 250 50 0 empty empty empty 17 7 0 10 -262144 -1
-1;
#X obj 168 120 * 0.1;
#X obj 231 166 -;
#X obj 193 142 t b f f;
#X obj 231 188 * -1;
#X obj 384 161 f;
#X obj 350 71 bng 15 250 50 0 empty empty empty 17 7 0 10 -262144 -1
-1;
#X obj 352 114 * 0.1;
#X obj 419 161 -;
#X obj 381 137 t b f f;
#X obj 419 183 * -1;
#X obj 566 134 f;
#X obj 534 46 bng 15 250 50 0 empty empty empty 17 7 0 10 -262144 -1
-1;
#X obj 536 87 * 0.1;
#X obj 601 134 -;
#X obj 563 110 t b f f;
#X obj 601 156 * -1;
#X obj 777 113 f;
#X obj 750 25 bng 15 250 50 0 empty empty empty 17 7 0 10 -262144 -1
-1;
#X obj 752 66 * 0.1;
#X obj 816 113 -;
#X obj 778 89 t b f f;
#X obj 816 135 * -1;
#X obj 961 91 f;
#X obj 940 2 bng 15 250 50 0 empty empty empty 17 7 0 10 -262144 -1
-1;
#X obj 1000 91 -;
#X obj 962 67 t b f f;
#X obj 1000 113 * -1;
#X obj 875 649 t b b b b b b b b b b b;
#X obj 1152 62 f;
#X obj 1125 -24 bng 15 250 50 0 empty empty empty 17 7 0 10 -262144
-1 -1;
#X obj 1127 17 * 0.1;
#X obj 1191 62 -;
#X obj 1153 38 t b f f;
#X obj 1191 84 * -1;
#X obj 251 451 f;
#X obj 223 363 bng 15 250 50 0 empty empty empty 17 7 0 10 -262144
-1 -1;
#X obj 225 404 * 0.1;
#X obj 290 451 -;
#X obj 252 427 t b f f;
#X obj 290 473 * -1;
#X obj 426 425 f;
#X obj 398 337 bng 15 250 50 0 empty empty empty 17 7 0 10 -262144
-1 -1;
#X obj 400 378 * 0.1;
#X obj 465 425 -;
#X obj 427 401 t b f f;
#X obj 465 447 * -1;
#X obj 604 399 f;
#X obj 575 312 bng 15 250 50 0 empty empty empty 17 7 0 10 -262144
-1 -1;
#X obj 577 353 * 0.1;
#X obj 643 399 -;
#X obj 605 375 t b f f;
#X obj 643 421 * -1;
#X obj 813 377 f;
#X obj 786 288 bng 15 250 50 0 empty empty empty 17 7 0 10 -262144
-1 -1;
#X obj 788 329 * 0.1;
#X obj 852 377 -;
#X obj 814 353 t b f f;
#X obj 849 400 * -1;
#X obj 1011 346 f;
#X obj 984 260 bng 15 250 50 0 empty empty empty 17 7 0 10 -262144
-1 -1;
#X obj 986 301 * 0.1;
#X obj 1050 346 -;
#X obj 1012 322 t b f f;
#X obj 1050 368 * -1;
#X obj 139 143 * 1;
#X text 41 46 duración mínima de ataque \, Armónico 1;
#X obj 352 136 +;
#X obj 167 142 +;
#X obj 535 109 +;
#X obj 300 136 * 0.987;
#X obj 751 88 +;
#X obj 936 67 +;
#X obj 1126 39 +;
#X obj 224 426 +;
#X obj 399 400 +;
#X obj 576 375 +;
#X obj 787 351 +;
#X obj 985 323 +;
#X obj 485 109 * 0.876;
#X obj 699 88 * 0.765;
#X obj 885 67 * 0.654;
#X obj 1075 38 * 0.567;
#X obj 936 325 * 0.098;
#X obj 735 351 * 0.123;
#X obj 526 374 * 0.234;
#X obj 349 401 * 0.345;
#X obj 172 426 * 0.456;
#X obj 849 649 bng 15 250 50 0 empty empty empty 17 7 0 10 -262144
-1 -1;
#X msg 595 224 0.198;
#X msg 806 206 0.145;
#X msg 998 186 0.129;
#X msg 1178 156 0.118;
#X msg 281 543 0.09108;
#X msg 456 514 0.0765;
#X msg 632 496 0.0345;
#X msg 840 468 0.0123;
#X msg 1039 438 0.00987;
#X obj 168 98 random 80;
#X obj 936 46 * 0.1;
#X obj 15 71 s minAtC2;
#X obj 97 19 t b b;
#X obj 191 11 r lb11;
#X obj 107 121 r minAtC2;
#X obj 288 114 r minAtC2;
#X obj 474 86 r minAtC2;
#X obj 687 66 r minAtC2;
#X obj 874 45 r minAtC2;
#X obj 1059 17 r minAtC2;
#X obj 914 302 r minAtC2;
#X obj 714 329 r minAtC2;
#X obj 505 352 r minAtC2;
#X obj 328 379 r minAtC2;
#X obj 151 404 r minAtC2;
#X obj 243 235 pow~;
#X obj 432 230 pow~;
#X obj 612 201 pow~;
#X obj 824 182 pow~;
#X obj 1013 163 pow~;
#X obj 1195 131 pow~;
#X obj 1053 415 pow~;
#X obj 862 444 pow~;
#X obj 649 472 pow~;
#X obj 478 493 pow~;
#X obj 303 519 pow~;
#X obj 278 235 r powC2;
#X obj 466 230 r powC2;
#X obj 646 200 r powC2;
#X obj 856 183 r powC2;
#X obj 1046 163 r powC2;
#X obj 1228 132 r powC2;
#X obj 336 519 r powC2;
#X obj 512 493 r powC2;
#X obj 684 473 r powC2;
#X obj 896 445 r powC2;
#X obj 1086 415 r powC2;
#X msg 16 46 15;
#X floatatom 156 165 5 0 0 0 - - -, f 5;
#X floatatom 341 159 5 0 0 0 - - -, f 5;
#X floatatom 524 132 5 0 0 0 - - -, f 5;
#X floatatom 740 111 5 0 0 0 - - -, f 5;
#X floatatom 925 90 5 0 0 0 - - -, f 5;
#X floatatom 1115 62 5 0 0 0 - - -, f 5;
#X floatatom 213 449 5 0 0 0 - - -, f 5;
#X floatatom 388 423 5 0 0 0 - - -, f 5;
#X floatatom 565 398 5 0 0 0 - - -, f 5;
#X floatatom 776 374 5 0 0 0 - - -, f 5;
#X floatatom 974 346 5 0 0 0 - - -, f 5;
#X obj 352 92 random 60;
#X obj 536 65 random 50;
#X obj 752 44 random 45;
#X obj 936 24 random 40;
#X obj 1127 -5 random 40;
#X obj 986 279 random 40;
#X obj 788 307 random 40;
#X obj 577 331 random 40;
#X obj 400 356 random 40;
#X obj 225 382 random 40;
#X obj 46 19 s powC2;
#X msg 14 20 2;
#X connect 22 0 128 0;
#X connect 29 0 11 0;
#X connect 30 0 12 0;
#X connect 31 0 13 0;
#X connect 32 0 14 0;
#X connect 33 0 15 0;
#X connect 34 0 16 0;
#X connect 35 0 17 0;
#X connect 36 0 18 0;
#X connect 37 0 19 0;
#X connect 38 0 20 0;
#X connect 39 0 21 0;
#X connect 40 0 41 0;
#X connect 42 0 49 0;
#X connect 42 0 90 0;
#X connect 43 0 29 1;
#X connect 44 0 30 1;
#X connect 45 0 214 0;
#X connect 46 0 45 0;
#X connect 47 0 46 0;
#X connect 48 0 47 0;
#X connect 50 0 215 0;
#X connect 51 0 50 0;
#X connect 52 0 51 0;
#X connect 53 0 216 0;
#X connect 54 0 53 0;
#X connect 55 0 54 0;
#X connect 56 0 217 0;
#X connect 57 0 56 0;
#X connect 58 0 57 0;
#X connect 59 0 218 0;
#X connect 60 0 59 0;
#X connect 61 0 60 0;
#X connect 62 0 219 0;
#X connect 63 0 62 0;
#X connect 64 0 63 0;
#X connect 65 0 224 0;
#X connect 66 0 65 0;
#X connect 67 0 66 0;
#X connect 68 0 223 0;
#X connect 69 0 68 0;
#X connect 70 0 69 0;
#X connect 71 0 222 0;
#X connect 72 0 71 0;
#X connect 73 0 72 0;
#X connect 74 0 221 0;
#X connect 75 0 74 0;
#X connect 76 0 75 0;
#X connect 77 0 220 0;
#X connect 78 0 77 0;
#X connect 79 0 78 0;
#X connect 81 0 82 0;
#X connect 82 0 43 0;
#X connect 82 1 44 0;
#X connect 82 2 189 0;
#X connect 82 3 190 0;
#X connect 82 4 191 0;
#X connect 82 5 192 0;
#X connect 82 6 193 0;
#X connect 82 7 194 0;
#X connect 82 8 195 0;
#X connect 82 9 196 0;
#X connect 82 10 197 0;
#X connect 88 0 82 0;
#X connect 89 0 108 1;
#X connect 90 0 99 0;
#X connect 90 1 98 0;
#X connect 90 2 97 0;
#X connect 90 3 96 0;
#X connect 90 4 95 0;
#X connect 90 5 93 0;
#X connect 90 6 92 0;
#X connect 90 7 91 0;
#X connect 90 8 94 0;
#X connect 90 9 89 0;
#X connect 90 10 102 1;
#X connect 91 0 120 1;
#X connect 92 0 125 1;
#X connect 93 0 132 1;
#X connect 94 0 114 1;
#X connect 95 0 138 1;
#X connect 96 0 144 1;
#X connect 97 0 150 1;
#X connect 98 0 156 1;
#X connect 99 0 162 1;
#X connect 100 0 198 0;
#X connect 101 0 168 0;
#X connect 102 0 104 0;
#X connect 103 0 48 0;
#X connect 103 1 48 1;
#X connect 103 2 102 0;
#X connect 104 0 47 1;
#X connect 105 0 52 0;
#X connect 106 0 248 0;
#X connect 107 0 167 0;
#X connect 108 0 110 0;
#X connect 109 0 105 0;
#X connect 109 1 105 1;
#X connect 109 2 108 0;
#X connect 110 0 52 1;
#X connect 111 0 55 0;
#X connect 112 0 249 0;
#X connect 113 0 169 0;
#X connect 114 0 116 0;
#X connect 115 0 111 0;
#X connect 115 1 111 1;
#X connect 115 2 114 0;
#X connect 116 0 55 1;
#X connect 117 0 58 0;
#X connect 118 0 250 0;
#X connect 119 0 171 0;
#X connect 120 0 122 0;
#X connect 121 0 117 0;
#X connect 121 1 117 1;
#X connect 121 2 120 0;
#X connect 122 0 58 1;
#X connect 123 0 61 0;
#X connect 124 0 251 0;
#X connect 125 0 127 0;
#X connect 126 0 123 0;
#X connect 126 1 123 1;
#X connect 126 2 125 0;
#X connect 127 0 61 1;
#X connect 128 0 253 0;
#X connect 128 1 254 0;
#X connect 128 2 255 0;
#X connect 128 3 256 0;
#X connect 128 4 257 0;
#X connect 128 5 252 0;
#X connect 128 6 251 0;
#X connect 128 7 250 0;
#X connect 128 8 249 0;
#X connect 128 9 248 0;
#X connect 128 10 198 0;
#X connect 129 0 64 0;
#X connect 130 0 252 0;
#X connect 131 0 173 0;
#X connect 132 0 134 0;
#X connect 133 0 129 0;
#X connect 133 1 129 1;
#X connect 133 2 132 0;
#X connect 134 0 64 1;
#X connect 135 0 67 0;
#X connect 136 0 257 0;
#X connect 137 0 174 0;
#X connect 138 0 140 0;
#X connect 139 0 135 0;
#X connect 139 1 135 1;
#X connect 139 2 138 0;
#X connect 140 0 67 1;
#X connect 141 0 70 0;
#X connect 142 0 256 0;
#X connect 143 0 175 0;
#X connect 144 0 146 0;
#X connect 145 0 141 0;
#X connect 145 1 141 1;
#X connect 145 2 144 0;
#X connect 146 0 70 1;
#X connect 147 0 73 0;
#X connect 148 0 255 0;
#X connect 149 0 176 0;
#X connect 150 0 152 0;
#X connect 151 0 147 0;
#X connect 151 1 147 1;
#X connect 151 2 150 0;
#X connect 152 0 73 1;
#X connect 153 0 76 0;
#X connect 154 0 254 0;
#X connect 155 0 177 0;
#X connect 156 0 158 0;
#X connect 157 0 153 0;
#X connect 157 1 153 1;
#X connect 157 2 156 0;
#X connect 158 0 76 1;
#X connect 159 0 79 0;
#X connect 160 0 253 0;
#X connect 161 0 178 0;
#X connect 162 0 164 0;
#X connect 163 0 159 0;
#X connect 163 1 159 1;
#X connect 163 2 162 0;
#X connect 164 0 79 1;
#X connect 165 0 168 1;
#X connect 167 0 109 0;
#X connect 167 0 238 0;
#X connect 168 0 103 0;
#X connect 168 0 237 0;
#X connect 169 0 115 0;
#X connect 169 0 239 0;
#X connect 170 0 167 1;
#X connect 171 0 121 0;
#X connect 171 0 240 0;
#X connect 172 0 126 0;
#X connect 172 0 241 0;
#X connect 173 0 133 0;
#X connect 173 0 242 0;
#X connect 174 0 139 0;
#X connect 174 0 243 0;
#X connect 175 0 145 0;
#X connect 175 0 244 0;
#X connect 176 0 151 0;
#X connect 176 0 245 0;
#X connect 177 0 157 0;
#X connect 177 0 246 0;
#X connect 178 0 163 0;
#X connect 178 0 247 0;
#X connect 179 0 169 1;
#X connect 180 0 171 1;
#X connect 181 0 172 1;
#X connect 182 0 173 1;
#X connect 183 0 178 1;
#X connect 184 0 177 1;
#X connect 185 0 176 1;
#X connect 186 0 175 1;
#X connect 187 0 174 1;
#X connect 188 0 128 0;
#X connect 189 0 31 1;
#X connect 190 0 32 1;
#X connect 191 0 33 1;
#X connect 192 0 34 1;
#X connect 193 0 35 1;
#X connect 194 0 36 1;
#X connect 195 0 37 1;
#X connect 196 0 38 1;
#X connect 197 0 39 1;
#X connect 198 0 101 0;
#X connect 199 0 172 0;
#X connect 201 0 259 0;
#X connect 201 1 236 0;
#X connect 202 0 201 0;
#X connect 203 0 165 0;
#X connect 204 0 170 0;
#X connect 205 0 179 0;
#X connect 206 0 180 0;
#X connect 207 0 181 0;
#X connect 208 0 182 0;
#X connect 209 0 183 0;
#X connect 210 0 184 0;
#X connect 211 0 185 0;
#X connect 212 0 186 0;
#X connect 213 0 187 0;
#X connect 214 0 29 0;
#X connect 215 0 30 0;
#X connect 216 0 31 0;
#X connect 217 0 32 0;
#X connect 218 0 33 0;
#X connect 219 0 34 0;
#X connect 220 0 39 0;
#X connect 221 0 38 0;
#X connect 222 0 37 0;
#X connect 223 0 36 0;
#X connect 224 0 35 0;
#X connect 225 0 214 1;
#X connect 226 0 215 1;
#X connect 227 0 216 1;
#X connect 228 0 217 1;
#X connect 229 0 218 1;
#X connect 230 0 219 1;
#X connect 231 0 224 1;
#X connect 232 0 223 1;
#X connect 233 0 222 1;
#X connect 234 0 221 1;
#X connect 235 0 220 1;
#X connect 236 0 200 0;
#X connect 248 0 107 0;
#X connect 249 0 113 0;
#X connect 250 0 119 0;
#X connect 251 0 199 0;
#X connect 252 0 131 0;
#X connect 253 0 161 0;
#X connect 254 0 155 0;
#X connect 255 0 149 0;
#X connect 256 0 143 0;
#X connect 257 0 137 0;
#X connect 259 0 258 0;
#X restore 470 165 pd c-amp_bajoC2;
#X msg 102 24 48;
#X connect 0 0 1 0;
#X connect 1 0 41 0;
#X connect 2 0 3 0;
#X connect 3 0 41 0;
#X connect 4 0 5 0;
#X connect 5 0 41 0;
#X connect 6 0 7 0;
#X connect 7 0 41 0;
#X connect 8 0 9 0;
#X connect 9 0 41 0;
#X connect 10 0 11 0;
#X connect 11 0 41 0;
#X connect 12 0 13 0;
#X connect 13 0 41 0;
#X connect 14 0 15 0;
#X connect 15 0 41 0;
#X connect 16 0 17 0;
#X connect 17 0 41 0;
#X connect 18 0 19 0;
#X connect 19 0 41 0;
#X connect 20 0 21 0;
#X connect 21 0 41 0;
#X connect 24 0 0 0;
#X connect 25 0 2 0;
#X connect 26 0 4 0;
#X connect 27 0 6 0;
#X connect 28 0 8 0;
#X connect 29 0 10 0;
#X connect 30 0 12 0;
#X connect 31 0 14 0;
#X connect 32 0 16 0;
#X connect 33 0 18 0;
#X connect 34 0 20 0;
#X connect 35 0 34 0;
#X connect 35 1 33 0;
#X connect 35 2 32 0;
#X connect 35 3 31 0;
#X connect 35 4 30 0;
#X connect 35 5 29 0;
#X connect 35 6 28 0;
#X connect 35 7 27 0;
#X connect 35 8 26 0;
#X connect 35 9 25 0;
#X connect 35 10 24 0;
#X connect 36 0 43 0;
#X connect 37 0 42 0;
#X connect 37 1 35 0;
#X connect 38 0 39 0;
#X connect 39 0 37 0;
#X connect 40 0 38 0;
#X connect 41 0 23 0;
#X connect 42 0 1 1;
#X connect 42 1 3 1;
#X connect 42 2 5 1;
#X connect 42 3 7 1;
#X connect 42 4 9 1;
#X connect 42 5 11 1;
#X connect 42 6 13 1;
#X connect 42 7 15 1;
#X connect 42 8 17 1;
#X connect 42 9 19 1;
#X connect 42 10 21 1;
#X connect 43 0 40 0;
#X restore 58 114 pd sintesisCuerda2;
#X connect 1 0 2 0;
#X connect 2 0 5 0;
#X connect 3 0 6 0;
#X connect 4 0 0 0;
#X connect 5 0 3 0;
#X connect 6 0 4 0;
#X restore 251 111 pd cuerda2;
#N canvas 685 62 262 216 cuerda3 0;
#X obj 62 160 outlet~;
#X obj 55 29 inlet nrodeBeat;
#X floatatom 55 51 5 0 0 0 - - -, f 5;
#X obj 57 92 bng 15 250 50 0 empty empty empty 17 7 0 10 -262144 -1
-1;
#X obj 60 138 *~ 2;
#N canvas 455 98 712 629 sintesisCuerda3 0;
#X obj 312 185 osc~;
#X obj 350 186 *~;
#X obj 312 215 osc~;
#X obj 350 216 *~;
#X obj 312 245 osc~;
#X obj 350 246 *~;
#X obj 312 275 osc~;
#X obj 350 276 *~;
#X obj 312 301 osc~;
#X obj 350 302 *~;
#X obj 312 331 osc~;
#X obj 350 331 *~;
#X obj 312 361 osc~;
#X obj 350 362 *~;
#X obj 312 391 osc~;
#X obj 350 392 *~;
#X obj 312 421 osc~;
#X obj 350 422 *~;
#X obj 313 452 osc~;
#X obj 348 453 *~;
#X obj 316 481 osc~;
#X obj 351 481 *~;
#X obj 37 355 bng 15 250 50 0 on(+)1 empty empty 17 7 0 10 -262144
-1 -1;
#X obj 504 459 outlet~;
#X obj 258 189 *~ 1;
#X obj 258 219 *~ 2;
#X obj 259 249 *~ 3;
#X obj 256 279 *~ 4;
#X obj 258 305 *~ 5;
#X obj 257 335 *~ 6;
#X obj 258 365 *~ 7;
#X obj 257 395 *~ 8;
#X obj 257 425 *~ 9;
#X obj 258 454 *~ 10;
#X obj 256 482 *~ 11;
#X obj 127 145 t f f f f f f f f f f f;
#X obj 155 14 inlet notas;
#X obj 187 104 t b f;
#X obj 194 58 mtof;
#X floatatom 188 82 5 0 0 0 - - -, f 5;
#X floatatom 105 46 5 0 0 0 - - -, f 5;
#X obj 503 369 *~ 1;
#N canvas 7 29 1256 740 c-amp_bajoC3 0;
#X text 16 288 1;
#X text 18 310 2;
#X text 21 333 3;
#X text 23 356 4;
#X text 26 382 5;
#X text 29 407 6;
#X text 30 431 7;
#X text 32 453 8;
#X text 32 525 11;
#X text 30 500 10;
#X text 34 478 9;
#X obj 31 287 outlet~;
#X obj 33 309 outlet~;
#X obj 36 333 outlet~;
#X obj 38 356 outlet~;
#X obj 40 381 outlet~;
#X obj 42 407 outlet~;
#X obj 45 430 outlet~;
#X obj 47 453 outlet~;
#X obj 48 477 outlet~;
#X obj 51 500 outlet~;
#X obj 53 523 outlet~;
#X obj 875 627 inlet b;
#X text 181 235 1;
#X text 369 230 2;
#X text 549 177 3;
#X text 750 177 4;
#X text 941 163 5;
#X text 1126 129 6;
#X obj 197 258 *~;
#X obj 384 255 *~;
#X obj 568 223 *~;
#X obj 778 207 *~;
#X obj 967 186 *~;
#X obj 1150 156 *~;
#X obj 252 544 *~;
#X obj 427 516 *~;
#X obj 605 495 *~;
#X obj 814 467 *~;
#X obj 1010 438 *~;
#X obj 409 589 bng 15 250 50 0 empty empty empty 17 7 0 10 -262144
-1 -1;
#X obj 406 607 s lbok;
#X obj 1028 592 r durBajo;
#X msg 224 258 0.296;
#X msg 412 255 0.21;
#X obj 197 235 vline~;
#X msg 196 212 0 \, 1 \$1 \, 0 \$2 \$1;
#X obj 195 190 pack;
#X obj 196 166 f;
#X floatatom 1093 594 5 0 0 0 - - -, f 5;
#X obj 385 230 vline~;
#X msg 384 207 0 \, 1 \$1 \, 0 \$2 \$1;
#X obj 383 185 pack;
#X obj 567 201 vline~;
#X msg 568 178 0 \, 1 \$1 \, 0 \$2 \$1;
#X obj 567 156 pack;
#X obj 777 181 vline~;
#X msg 778 158 0 \, 1 \$1 \, 0 \$2 \$1;
#X obj 777 136 pack;
#X obj 966 162 vline~;
#X msg 967 139 0 \, 1 \$1 \, 0 \$2 \$1;
#X obj 966 117 pack;
#X obj 1149 133 vline~;
#X msg 1150 110 0 \, 1 \$1 \, 0 \$2 \$1;
#X obj 1149 88 pack;
#X obj 252 520 vline~;
#X msg 251 497 0 \, 1 \$1 \, 0 \$2 \$1;
#X obj 250 475 pack;
#X obj 429 493 vline~;
#X msg 428 470 0 \, 1 \$1 \, 0 \$2 \$1;
#X obj 427 448 pack;
#X obj 604 472 vline~;
#X msg 605 448 0 \, 1 \$1 \, 0 \$2 \$1;
#X obj 604 426 pack;
#X obj 815 445 vline~;
#X msg 816 422 0 \, 1 \$1 \, 0 \$2 \$1;
#X obj 815 400 pack;
#X obj 1009 415 vline~;
#X msg 1010 392 0 \, 1 \$1 \, 0 \$2 \$1;
#X obj 1009 370 pack;
#X msg 1112 832 1;
#X obj 1205 619 r lb11;
#X obj 1205 641 t b b b b b b b b b b b;
#X text 985 416 11;
#X text 791 446 10;
#X text 587 474 9;
#X text 407 493 8;
#X text 229 519 7;
#X obj 1260 618 bng 15 250 50 0 empty empty empty 17 7 0 10 -262144
-1 -1;
#X obj 446 159 * 0.987;
#X obj 1028 615 t f f f f f f f f f f f;
#X obj 843 113 * 0.765;
#X obj 1027 90 * 0.654;
#X obj 1220 62 * 0.567;
#X obj 628 134 * 0.876;
#X obj 317 450 * 0.456;
#X obj 492 424 * 0.345;
#X obj 670 399 * 0.234;
#X obj 878 376 * 0.123;
#X obj 1076 345 * 0.098;
#X obj 139 87 bng 15 250 50 0 empty empty empty 17 7 0 10 -262144 -1
-1;
#X obj 168 120 * 0.1;
#X obj 231 166 -;
#X obj 193 142 t b f f;
#X obj 231 188 * -1;
#X obj 384 161 f;
#X obj 350 71 bng 15 250 50 0 empty empty empty 17 7 0 10 -262144 -1
-1;
#X obj 352 114 * 0.1;
#X obj 419 161 -;
#X obj 381 137 t b f f;
#X obj 419 183 * -1;
#X obj 566 134 f;
#X obj 534 46 bng 15 250 50 0 empty empty empty 17 7 0 10 -262144 -1
-1;
#X obj 536 87 * 0.1;
#X obj 601 134 -;
#X obj 563 110 t b f f;
#X obj 601 156 * -1;
#X obj 777 113 f;
#X obj 750 25 bng 15 250 50 0 empty empty empty 17 7 0 10 -262144 -1
-1;
#X obj 752 66 * 0.1;
#X obj 816 113 -;
#X obj 778 89 t b f f;
#X obj 816 135 * -1;
#X obj 961 91 f;
#X obj 940 2 bng 15 250 50 0 empty empty empty 17 7 0 10 -262144 -1
-1;
#X obj 1000 91 -;
#X obj 962 67 t b f f;
#X obj 1000 113 * -1;
#X obj 875 649 t b b b b b b b b b b b;
#X obj 1152 62 f;
#X obj 1125 -24 bng 15 250 50 0 empty empty empty 17 7 0 10 -262144
-1 -1;
#X obj 1127 17 * 0.1;
#X obj 1191 62 -;
#X obj 1153 38 t b f f;
#X obj 1191 84 * -1;
#X obj 251 451 f;
#X obj 223 363 bng 15 250 50 0 empty empty empty 17 7 0 10 -262144
-1 -1;
#X obj 225 404 * 0.1;
#X obj 290 451 -;
#X obj 252 427 t b f f;
#X obj 290 473 * -1;
#X obj 426 425 f;
#X obj 398 337 bng 15 250 50 0 empty empty empty 17 7 0 10 -262144
-1 -1;
#X obj 400 378 * 0.1;
#X obj 465 425 -;
#X obj 427 401 t b f f;
#X obj 465 447 * -1;
#X obj 604 399 f;
#X obj 575 312 bng 15 250 50 0 empty empty empty 17 7 0 10 -262144
-1 -1;
#X obj 577 353 * 0.1;
#X obj 643 399 -;
#X obj 605 375 t b f f;
#X obj 643 421 * -1;
#X obj 813 377 f;
#X obj 786 288 bng 15 250 50 0 empty empty empty 17 7 0 10 -262144
-1 -1;
#X obj 788 329 * 0.1;
#X obj 852 377 -;
#X obj 814 353 t b f f;
#X obj 849 400 * -1;
#X obj 1011 346 f;
#X obj 984 260 bng 15 250 50 0 empty empty empty 17 7 0 10 -262144
-1 -1;
#X obj 986 301 * 0.1;
#X obj 1050 346 -;
#X obj 1012 322 t b f f;
#X obj 1050 368 * -1;
#X obj 139 143 * 1;
#X text 53 51 duración mínima de ataque \, Armónico 1;
#X obj 352 136 +;
#X obj 167 142 +;
#X obj 535 109 +;
#X obj 300 136 * 0.987;
#X obj 751 88 +;
#X obj 936 67 +;
#X obj 1126 39 +;
#X obj 224 426 +;
#X obj 399 400 +;
#X obj 576 375 +;
#X obj 787 351 +;
#X obj 985 323 +;
#X obj 485 109 * 0.876;
#X obj 699 88 * 0.765;
#X obj 885 67 * 0.654;
#X obj 1075 38 * 0.567;
#X obj 936 325 * 0.098;
#X obj 735 351 * 0.123;
#X obj 526 374 * 0.234;
#X obj 349 401 * 0.345;
#X obj 172 426 * 0.456;
#X obj 849 649 bng 15 250 50 0 empty empty empty 17 7 0 10 -262144
-1 -1;
#X msg 595 224 0.198;
#X msg 806 206 0.145;
#X msg 998 186 0.129;
#X msg 1178 156 0.118;
#X msg 281 543 0.09108;
#X msg 456 514 0.0765;
#X msg 632 496 0.0345;
#X msg 840 468 0.0123;
#X msg 1039 438 0.00987;
#X obj 168 98 random 80;
#X obj 936 46 * 0.1;
#X obj 20 73 s minAtC3;
#X obj 191 11 r lb12;
#X obj 152 13 t b b;
#X obj 62 15 s powC3;
#X obj 303 519 pow~;
#X obj 478 493 pow~;
#X obj 649 472 pow~;
#X obj 862 444 pow~;
#X obj 1053 415 pow~;
#X obj 1195 131 pow~;
#X obj 1013 163 pow~;
#X obj 824 182 pow~;
#X obj 612 201 pow~;
#X obj 432 230 pow~;
#X obj 243 235 pow~;
#X obj 276 236 r powC3;
#X obj 465 230 r powC3;
#X obj 645 201 r powC3;
#X obj 859 182 r powC3;
#X obj 336 519 r powC3;
#X obj 512 493 r powC3;
#X obj 682 471 r powC3;
#X obj 895 444 r powC3;
#X obj 1086 416 r powC3;
#X obj 1046 163 r powC3;
#X obj 1228 132 r powC3;
#X obj 105 120 r minAtC3;
#X obj 289 114 r minAtC3;
#X obj 474 87 r minAtC3;
#X obj 688 66 r minAtC3;
#X obj 874 45 r minAtC3;
#X obj 1059 17 r minAtC3;
#X obj 151 404 r minAtC3;
#X obj 328 379 r minAtC3;
#X obj 506 352 r minAtC3;
#X obj 715 328 r minAtC3;
#X obj 914 302 r minAtC3;
#X msg 21 48 17;
#X floatatom 975 347 5 0 0 0 - - -, f 5;
#X floatatom 777 375 5 0 0 0 - - -, f 5;
#X floatatom 566 399 5 0 0 0 - - -, f 5;
#X floatatom 389 424 5 0 0 0 - - -, f 5;
#X floatatom 214 450 5 0 0 0 - - -, f 5;
#X floatatom 157 166 5 0 0 0 - - -, f 5;
#X floatatom 342 160 5 0 0 0 - - -, f 5;
#X floatatom 525 133 5 0 0 0 - - -, f 5;
#X floatatom 741 112 5 0 0 0 - - -, f 5;
#X floatatom 926 91 5 0 0 0 - - -, f 5;
#X floatatom 1116 63 5 0 0 0 - - -, f 5;
#X obj 352 92 random 60;
#X obj 536 65 random 50;
#X obj 752 44 random 45;
#X obj 936 24 random 40;
#X obj 1127 -5 random 40;
#X obj 986 279 random 40;
#X obj 788 307 random 40;
#X obj 577 331 random 40;
#X obj 400 356 random 40;
#X obj 225 382 random 40;
#X msg 19 15 2;
#X connect 22 0 128 0;
#X connect 29 0 11 0;
#X connect 30 0 12 0;
#X connect 31 0 13 0;
#X connect 32 0 14 0;
#X connect 33 0 15 0;
#X connect 34 0 16 0;
#X connect 35 0 17 0;
#X connect 36 0 18 0;
#X connect 37 0 19 0;
#X connect 38 0 20 0;
#X connect 39 0 21 0;
#X connect 40 0 41 0;
#X connect 42 0 49 0;
#X connect 42 0 90 0;
#X connect 43 0 29 1;
#X connect 44 0 30 1;
#X connect 45 0 214 0;
#X connect 46 0 45 0;
#X connect 47 0 46 0;
#X connect 48 0 47 0;
#X connect 50 0 213 0;
#X connect 51 0 50 0;
#X connect 52 0 51 0;
#X connect 53 0 212 0;
#X connect 54 0 53 0;
#X connect 55 0 54 0;
#X connect 56 0 211 0;
#X connect 57 0 56 0;
#X connect 58 0 57 0;
#X connect 59 0 210 0;
#X connect 60 0 59 0;
#X connect 61 0 60 0;
#X connect 62 0 209 0;
#X connect 63 0 62 0;
#X connect 64 0 63 0;
#X connect 65 0 204 0;
#X connect 66 0 65 0;
#X connect 67 0 66 0;
#X connect 68 0 205 0;
#X connect 69 0 68 0;
#X connect 70 0 69 0;
#X connect 71 0 206 0;
#X connect 72 0 71 0;
#X connect 73 0 72 0;
#X connect 74 0 207 0;
#X connect 75 0 74 0;
#X connect 76 0 75 0;
#X connect 77 0 208 0;
#X connect 78 0 77 0;
#X connect 79 0 78 0;
#X connect 81 0 82 0;
#X connect 82 0 43 0;
#X connect 82 1 44 0;
#X connect 82 2 189 0;
#X connect 82 3 190 0;
#X connect 82 4 191 0;
#X connect 82 5 192 0;
#X connect 82 6 193 0;
#X connect 82 7 194 0;
#X connect 82 8 195 0;
#X connect 82 9 196 0;
#X connect 82 10 197 0;
#X connect 88 0 82 0;
#X connect 89 0 108 1;
#X connect 90 0 99 0;
#X connect 90 1 98 0;
#X connect 90 2 97 0;
#X connect 90 3 96 0;
#X connect 90 4 95 0;
#X connect 90 5 93 0;
#X connect 90 6 92 0;
#X connect 90 7 91 0;
#X connect 90 8 94 0;
#X connect 90 9 89 0;
#X connect 90 10 102 1;
#X connect 91 0 120 1;
#X connect 92 0 125 1;
#X connect 93 0 132 1;
#X connect 94 0 114 1;
#X connect 95 0 138 1;
#X connect 96 0 144 1;
#X connect 97 0 150 1;
#X connect 98 0 156 1;
#X connect 99 0 162 1;
#X connect 100 0 198 0;
#X connect 101 0 168 0;
#X connect 102 0 104 0;
#X connect 103 0 48 0;
#X connect 103 1 48 1;
#X connect 103 2 102 0;
#X connect 104 0 47 1;
#X connect 105 0 52 0;
#X connect 106 0 249 0;
#X connect 107 0 167 0;
#X connect 108 0 110 0;
#X connect 109 0 105 0;
#X connect 109 1 105 1;
#X connect 109 2 108 0;
#X connect 110 0 52 1;
#X connect 111 0 55 0;
#X connect 112 0 250 0;
#X connect 113 0 169 0;
#X connect 114 0 116 0;
#X connect 115 0 111 0;
#X connect 115 1 111 1;
#X connect 115 2 114 0;
#X connect 116 0 55 1;
#X connect 117 0 58 0;
#X connect 118 0 251 0;
#X connect 119 0 171 0;
#X connect 120 0 122 0;
#X connect 121 0 117 0;
#X connect 121 1 117 1;
#X connect 121 2 120 0;
#X connect 122 0 58 1;
#X connect 123 0 61 0;
#X connect 124 0 252 0;
#X connect 125 0 127 0;
#X connect 126 0 123 0;
#X connect 126 1 123 1;
#X connect 126 2 125 0;
#X connect 127 0 61 1;
#X connect 128 0 254 0;
#X connect 128 1 255 0;
#X connect 128 2 256 0;
#X connect 128 3 257 0;
#X connect 128 4 258 0;
#X connect 128 5 253 0;
#X connect 128 6 252 0;
#X connect 128 7 251 0;
#X connect 128 8 250 0;
#X connect 128 9 249 0;
#X connect 128 10 198 0;
#X connect 129 0 64 0;
#X connect 130 0 253 0;
#X connect 131 0 173 0;
#X connect 132 0 134 0;
#X connect 133 0 129 0;
#X connect 133 1 129 1;
#X connect 133 2 132 0;
#X connect 134 0 64 1;
#X connect 135 0 67 0;
#X connect 136 0 258 0;
#X connect 137 0 174 0;
#X connect 138 0 140 0;
#X connect 139 0 135 0;
#X connect 139 1 135 1;
#X connect 139 2 138 0;
#X connect 140 0 67 1;
#X connect 141 0 70 0;
#X connect 142 0 257 0;
#X connect 143 0 175 0;
#X connect 144 0 146 0;
#X connect 145 0 141 0;
#X connect 145 1 141 1;
#X connect 145 2 144 0;
#X connect 146 0 70 1;
#X connect 147 0 73 0;
#X connect 148 0 256 0;
#X connect 149 0 176 0;
#X connect 150 0 152 0;
#X connect 151 0 147 0;
#X connect 151 1 147 1;
#X connect 151 2 150 0;
#X connect 152 0 73 1;
#X connect 153 0 76 0;
#X connect 154 0 255 0;
#X connect 155 0 177 0;
#X connect 156 0 158 0;
#X connect 157 0 153 0;
#X connect 157 1 153 1;
#X connect 157 2 156 0;
#X connect 158 0 76 1;
#X connect 159 0 79 0;
#X connect 160 0 254 0;
#X connect 161 0 178 0;
#X connect 162 0 164 0;
#X connect 163 0 159 0;
#X connect 163 1 159 1;
#X connect 163 2 162 0;
#X connect 164 0 79 1;
#X connect 165 0 168 1;
#X connect 167 0 109 0;
#X connect 167 0 244 0;
#X connect 168 0 103 0;
#X connect 168 0 243 0;
#X connect 169 0 115 0;
#X connect 169 0 245 0;
#X connect 170 0 167 1;
#X connect 171 0 121 0;
#X connect 171 0 246 0;
#X connect 172 0 126 0;
#X connect 172 0 247 0;
#X connect 173 0 133 0;
#X connect 173 0 248 0;
#X connect 174 0 139 0;
#X connect 174 0 242 0;
#X connect 175 0 145 0;
#X connect 175 0 241 0;
#X connect 176 0 151 0;
#X connect 176 0 240 0;
#X connect 177 0 157 0;
#X connect 177 0 239 0;
#X connect 178 0 163 0;
#X connect 178 0 238 0;
#X connect 179 0 169 1;
#X connect 180 0 171 1;
#X connect 181 0 172 1;
#X connect 182 0 173 1;
#X connect 183 0 178 1;
#X connect 184 0 177 1;
#X connect 185 0 176 1;
#X connect 186 0 175 1;
#X connect 187 0 174 1;
#X connect 188 0 128 0;
#X connect 189 0 31 1;
#X connect 190 0 32 1;
#X connect 191 0 33 1;
#X connect 192 0 34 1;
#X connect 193 0 35 1;
#X connect 194 0 36 1;
#X connect 195 0 37 1;
#X connect 196 0 38 1;
#X connect 197 0 39 1;
#X connect 198 0 101 0;
#X connect 199 0 172 0;
#X connect 201 0 202 0;
#X connect 202 0 259 0;
#X connect 202 1 237 0;
#X connect 204 0 35 0;
#X connect 205 0 36 0;
#X connect 206 0 37 0;
#X connect 207 0 38 0;
#X connect 208 0 39 0;
#X connect 209 0 34 0;
#X connect 210 0 33 0;
#X connect 211 0 32 0;
#X connect 212 0 31 0;
#X connect 213 0 30 0;
#X connect 214 0 29 0;
#X connect 215 0 214 1;
#X connect 216 0 213 1;
#X connect 217 0 212 1;
#X connect 218 0 211 1;
#X connect 219 0 204 1;
#X connect 220 0 205 1;
#X connect 221 0 206 1;
#X connect 222 0 207 1;
#X connect 223 0 208 1;
#X connect 224 0 210 1;
#X connect 225 0 209 1;
#X connect 226 0 165 0;
#X connect 227 0 170 0;
#X connect 228 0 179 0;
#X connect 229 0 180 0;
#X connect 230 0 181 0;
#X connect 231 0 182 0;
#X connect 232 0 187 0;
#X connect 233 0 186 0;
#X connect 234 0 185 0;
#X connect 235 0 184 0;
#X connect 236 0 183 0;
#X connect 237 0 200 0;
#X connect 249 0 107 0;
#X connect 250 0 113 0;
#X connect 251 0 119 0;
#X connect 252 0 199 0;
#X connect 253 0 131 0;
#X connect 254 0 161 0;
#X connect 255 0 155 0;
#X connect 256 0 149 0;
#X connect 257 0 143 0;
#X connect 258 0 137 0;
#X connect 259 0 203 0;
#X restore 470 165 pd c-amp_bajoC3;
#X msg 102 24 43;
#X connect 0 0 1 0;
#X connect 1 0 41 0;
#X connect 2 0 3 0;
#X connect 3 0 41 0;
#X connect 4 0 5 0;
#X connect 5 0 41 0;
#X connect 6 0 7 0;
#X connect 7 0 41 0;
#X connect 8 0 9 0;
#X connect 9 0 41 0;
#X connect 10 0 11 0;
#X connect 11 0 41 0;
#X connect 12 0 13 0;
#X connect 13 0 41 0;
#X connect 14 0 15 0;
#X connect 15 0 41 0;
#X connect 16 0 17 0;
#X connect 17 0 41 0;
#X connect 18 0 19 0;
#X connect 19 0 41 0;
#X connect 20 0 21 0;
#X connect 21 0 41 0;
#X connect 24 0 0 0;
#X connect 25 0 2 0;
#X connect 26 0 4 0;
#X connect 27 0 6 0;
#X connect 28 0 8 0;
#X connect 29 0 10 0;
#X connect 30 0 12 0;
#X connect 31 0 14 0;
#X connect 32 0 16 0;
#X connect 33 0 18 0;
#X connect 34 0 20 0;
#X connect 35 0 34 0;
#X connect 35 1 33 0;
#X connect 35 2 32 0;
#X connect 35 3 31 0;
#X connect 35 4 30 0;
#X connect 35 5 29 0;
#X connect 35 6 28 0;
#X connect 35 7 27 0;
#X connect 35 8 26 0;
#X connect 35 9 25 0;
#X connect 35 10 24 0;
#X connect 36 0 43 0;
#X connect 37 0 42 0;
#X connect 37 1 35 0;
#X connect 38 0 39 0;
#X connect 39 0 37 0;
#X connect 40 0 38 0;
#X connect 41 0 23 0;
#X connect 42 0 1 1;
#X connect 42 1 3 1;
#X connect 42 2 5 1;
#X connect 42 3 7 1;
#X connect 42 4 9 1;
#X connect 42 5 11 1;
#X connect 42 6 13 1;
#X connect 42 7 15 1;
#X connect 42 8 17 1;
#X connect 42 9 19 1;
#X connect 42 10 21 1;
#X connect 43 0 40 0;
#X restore 58 114 pd sintesisCuerda3;
#X obj 55 70 sel 3;
#X connect 1 0 2 0;
#X connect 2 0 6 0;
#X connect 3 0 5 0;
#X connect 4 0 0 0;
#X connect 5 0 4 0;
#X connect 6 0 3 0;
#X restore 263 136 pd cuerda3;
#N canvas 685 62 262 216 cuerda4 0;
#X obj 62 160 outlet~;
#X obj 55 29 inlet nrodeBeat;
#X floatatom 55 51 5 0 0 0 - - -, f 5;
#X obj 60 138 *~ 2;
#N canvas 455 98 712 629 sintesisCuerda4 0;
#X obj 312 185 osc~;
#X obj 350 186 *~;
#X obj 312 215 osc~;
#X obj 350 216 *~;
#X obj 312 245 osc~;
#X obj 350 246 *~;
#X obj 312 275 osc~;
#X obj 350 276 *~;
#X obj 312 301 osc~;
#X obj 350 302 *~;
#X obj 312 331 osc~;
#X obj 350 331 *~;
#X obj 312 361 osc~;
#X obj 350 362 *~;
#X obj 312 391 osc~;
#X obj 350 392 *~;
#X obj 312 421 osc~;
#X obj 350 422 *~;
#X obj 313 452 osc~;
#X obj 348 453 *~;
#X obj 316 481 osc~;
#X obj 351 481 *~;
#X obj 37 355 bng 15 250 50 0 on(+)1 empty empty 17 7 0 10 -262144
-1 -1;
#X obj 504 459 outlet~;
#X obj 258 189 *~ 1;
#X obj 258 219 *~ 2;
#X obj 259 249 *~ 3;
#X obj 256 279 *~ 4;
#X obj 258 305 *~ 5;
#X obj 257 335 *~ 6;
#X obj 258 365 *~ 7;
#X obj 257 395 *~ 8;
#X obj 257 425 *~ 9;
#X obj 258 454 *~ 10;
#X obj 256 482 *~ 11;
#X obj 127 145 t f f f f f f f f f f f;
#X obj 155 14 inlet notas;
#X obj 187 104 t b f;
#X obj 194 58 mtof;
#X floatatom 188 82 5 0 0 0 - - -, f 5;
#X floatatom 105 46 5 0 0 0 - - -, f 5;
#X obj 503 369 *~ 1;
#N canvas 7 29 1256 740 c-amp_bajoC4 0;
#X text 16 288 1;
#X text 18 310 2;
#X text 21 333 3;
#X text 23 356 4;
#X text 26 382 5;
#X text 29 407 6;
#X text 30 431 7;
#X text 32 453 8;
#X text 32 525 11;
#X text 30 500 10;
#X text 34 478 9;
#X obj 31 287 outlet~;
#X obj 33 309 outlet~;
#X obj 36 333 outlet~;
#X obj 38 356 outlet~;
#X obj 40 381 outlet~;
#X obj 42 407 outlet~;
#X obj 45 430 outlet~;
#X obj 47 453 outlet~;
#X obj 48 477 outlet~;
#X obj 51 500 outlet~;
#X obj 53 523 outlet~;
#X obj 875 627 inlet b;
#X text 181 235 1;
#X text 369 230 2;
#X text 549 177 3;
#X text 750 177 4;
#X text 941 163 5;
#X text 1126 129 6;
#X obj 197 258 *~;
#X obj 384 255 *~;
#X obj 568 223 *~;
#X obj 778 207 *~;
#X obj 967 186 *~;
#X obj 1150 156 *~;
#X obj 252 544 *~;
#X obj 427 516 *~;
#X obj 605 495 *~;
#X obj 814 467 *~;
#X obj 1010 438 *~;
#X obj 409 589 bng 15 250 50 0 empty empty empty 17 7 0 10 -262144
-1 -1;
#X obj 406 607 s lbok;
#X obj 1028 592 r durBajo;
#X msg 224 258 0.296;
#X msg 412 255 0.21;
#X obj 197 235 vline~;
#X msg 196 212 0 \, 1 \$1 \, 0 \$2 \$1;
#X obj 195 190 pack;
#X obj 196 166 f;
#X floatatom 1093 594 5 0 0 0 - - -, f 5;
#X obj 385 230 vline~;
#X msg 384 207 0 \, 1 \$1 \, 0 \$2 \$1;
#X obj 383 185 pack;
#X obj 567 201 vline~;
#X msg 568 178 0 \, 1 \$1 \, 0 \$2 \$1;
#X obj 567 156 pack;
#X obj 777 181 vline~;
#X msg 778 158 0 \, 1 \$1 \, 0 \$2 \$1;
#X obj 777 136 pack;
#X obj 966 162 vline~;
#X msg 967 139 0 \, 1 \$1 \, 0 \$2 \$1;
#X obj 966 117 pack;
#X obj 1149 133 vline~;
#X msg 1150 110 0 \, 1 \$1 \, 0 \$2 \$1;
#X obj 1149 88 pack;
#X obj 252 520 vline~;
#X msg 251 497 0 \, 1 \$1 \, 0 \$2 \$1;
#X obj 250 475 pack;
#X obj 429 493 vline~;
#X msg 428 470 0 \, 1 \$1 \, 0 \$2 \$1;
#X obj 427 448 pack;
#X obj 604 472 vline~;
#X msg 605 448 0 \, 1 \$1 \, 0 \$2 \$1;
#X obj 604 426 pack;
#X obj 815 445 vline~;
#X msg 816 422 0 \, 1 \$1 \, 0 \$2 \$1;
#X obj 815 400 pack;
#X obj 1009 415 vline~;
#X msg 1010 392 0 \, 1 \$1 \, 0 \$2 \$1;
#X obj 1009 370 pack;
#X msg 1112 832 1;
#X obj 1205 619 r lb11;
#X obj 1205 641 t b b b b b b b b b b b;
#X text 985 416 11;
#X text 791 446 10;
#X text 587 474 9;
#X text 407 493 8;
#X text 229 519 7;
#X obj 1260 618 bng 15 250 50 0 empty empty empty 17 7 0 10 -262144
-1 -1;
#X obj 446 159 * 0.987;
#X obj 1028 615 t f f f f f f f f f f f;
#X obj 843 113 * 0.765;
#X obj 1027 90 * 0.654;
#X obj 1220 62 * 0.567;
#X obj 628 134 * 0.876;
#X obj 317 450 * 0.456;
#X obj 492 424 * 0.345;
#X obj 670 399 * 0.234;
#X obj 878 376 * 0.123;
#X obj 1076 345 * 0.098;
#X obj 139 87 bng 15 250 50 0 empty empty empty 17 7 0 10 -262144 -1
-1;
#X obj 168 120 * 0.1;
#X obj 231 166 -;
#X obj 193 142 t b f f;
#X obj 231 188 * -1;
#X obj 384 161 f;
#X obj 350 71 bng 15 250 50 0 empty empty empty 17 7 0 10 -262144 -1
-1;
#X obj 352 114 * 0.1;
#X obj 419 161 -;
#X obj 381 137 t b f f;
#X obj 419 183 * -1;
#X obj 566 134 f;
#X obj 534 46 bng 15 250 50 0 empty empty empty 17 7 0 10 -262144 -1
-1;
#X obj 536 87 * 0.1;
#X obj 601 134 -;
#X obj 563 110 t b f f;
#X obj 601 156 * -1;
#X obj 777 113 f;
#X obj 750 25 bng 15 250 50 0 empty empty empty 17 7 0 10 -262144 -1
-1;
#X obj 752 66 * 0.1;
#X obj 816 113 -;
#X obj 778 89 t b f f;
#X obj 816 135 * -1;
#X obj 961 91 f;
#X obj 940 2 bng 15 250 50 0 empty empty empty 17 7 0 10 -262144 -1
-1;
#X obj 1000 91 -;
#X obj 962 67 t b f f;
#X obj 1000 113 * -1;
#X obj 875 649 t b b b b b b b b b b b;
#X obj 1152 62 f;
#X obj 1125 -24 bng 15 250 50 0 empty empty empty 17 7 0 10 -262144
-1 -1;
#X obj 1127 17 * 0.1;
#X obj 1191 62 -;
#X obj 1153 38 t b f f;
#X obj 1191 84 * -1;
#X obj 251 451 f;
#X obj 223 363 bng 15 250 50 0 empty empty empty 17 7 0 10 -262144
-1 -1;
#X obj 225 404 * 0.1;
#X obj 290 451 -;
#X obj 252 427 t b f f;
#X obj 290 473 * -1;
#X obj 426 425 f;
#X obj 398 337 bng 15 250 50 0 empty empty empty 17 7 0 10 -262144
-1 -1;
#X obj 400 378 * 0.1;
#X obj 465 425 -;
#X obj 427 401 t b f f;
#X obj 465 447 * -1;
#X obj 604 399 f;
#X obj 575 312 bng 15 250 50 0 empty empty empty 17 7 0 10 -262144
-1 -1;
#X obj 577 353 * 0.1;
#X obj 643 399 -;
#X obj 605 375 t b f f;
#X obj 643 421 * -1;
#X obj 813 377 f;
#X obj 786 288 bng 15 250 50 0 empty empty empty 17 7 0 10 -262144
-1 -1;
#X obj 788 329 * 0.1;
#X obj 852 377 -;
#X obj 814 353 t b f f;
#X obj 849 400 * -1;
#X obj 1011 346 f;
#X obj 984 260 bng 15 250 50 0 empty empty empty 17 7 0 10 -262144
-1 -1;
#X obj 986 301 * 0.1;
#X obj 1050 346 -;
#X obj 1012 322 t b f f;
#X obj 1050 368 * -1;
#X obj 139 143 * 1;
#X text 45 60 duración mínima de ataque \, Armónico 1;
#X obj 352 136 +;
#X obj 167 142 +;
#X obj 535 109 +;
#X obj 300 136 * 0.987;
#X obj 751 88 +;
#X obj 936 67 +;
#X obj 1126 39 +;
#X obj 224 426 +;
#X obj 399 400 +;
#X obj 576 375 +;
#X obj 787 351 +;
#X obj 985 323 +;
#X obj 485 109 * 0.876;
#X obj 699 88 * 0.765;
#X obj 885 67 * 0.654;
#X obj 1075 38 * 0.567;
#X obj 936 325 * 0.098;
#X obj 735 351 * 0.123;
#X obj 526 374 * 0.234;
#X obj 349 401 * 0.345;
#X obj 172 426 * 0.456;
#X obj 849 649 bng 15 250 50 0 empty empty empty 17 7 0 10 -262144
-1 -1;
#X msg 595 224 0.198;
#X msg 806 206 0.145;
#X msg 998 186 0.129;
#X msg 1178 156 0.118;
#X msg 281 543 0.09108;
#X msg 456 514 0.0765;
#X msg 632 496 0.0345;
#X msg 840 468 0.0123;
#X msg 1039 438 0.00987;
#X obj 168 98 random 80;
#X obj 936 46 * 0.1;
#X obj 243 235 pow~;
#X obj 432 230 pow~;
#X obj 612 201 pow~;
#X obj 824 182 pow~;
#X obj 1013 163 pow~;
#X obj 1195 131 pow~;
#X obj 1053 415 pow~;
#X obj 862 444 pow~;
#X obj 649 472 pow~;
#X obj 478 493 pow~;
#X obj 303 519 pow~;
#X obj 336 519 r powC4;
#X obj 512 493 r powC4;
#X obj 682 471 r powC4;
#X obj 897 443 r powC4;
#X obj 1086 416 r powC4;
#X obj 1228 132 r powC4;
#X obj 1046 163 r powC4;
#X obj 859 182 r powC4;
#X obj 645 201 r powC4;
#X obj 465 230 r powC4;
#X obj 276 236 r powC4;
#X obj 191 11 r lb13;
#X obj 151 12 t b b;
#X obj 18 82 s minAtC4;
#X msg 15 16 2;
#X obj 50 19 s powC4;
#X obj 107 120 r minAtC4;
#X obj 290 114 r minAtC4;
#X obj 475 87 r minAtC4;
#X obj 689 66 r minAtC4;
#X obj 876 45 r minAtC4;
#X obj 1060 16 r minAtC4;
#X obj 923 302 r minAtC4;
#X obj 723 329 r minAtC4;
#X obj 513 352 r minAtC4;
#X obj 337 379 r minAtC4;
#X obj 160 404 r minAtC4;
#X msg 19 57 21;
#X floatatom 162 166 5 0 0 0 - - -, f 5;
#X floatatom 347 160 5 0 0 0 - - -, f 5;
#X floatatom 530 133 5 0 0 0 - - -, f 5;
#X floatatom 739 113 5 0 0 0 - - -, f 5;
#X floatatom 924 92 5 0 0 0 - - -, f 5;
#X floatatom 1114 64 5 0 0 0 - - -, f 5;
#X floatatom 980 347 5 0 0 0 - - -, f 5;
#X floatatom 775 377 5 0 0 0 - - -, f 5;
#X floatatom 571 399 5 0 0 0 - - -, f 5;
#X floatatom 394 424 5 0 0 0 - - -, f 5;
#X floatatom 219 450 5 0 0 0 - - -, f 5;
#X obj 352 92 random 60;
#X obj 536 65 random 50;
#X obj 752 44 random 45;
#X obj 936 24 random 40;
#X obj 1127 -5 random 40;
#X obj 986 279 random 40;
#X obj 788 307 random 40;
#X obj 577 331 random 40;
#X obj 400 356 random 40;
#X obj 225 382 random 40;
#X connect 22 0 128 0;
#X connect 29 0 11 0;
#X connect 30 0 12 0;
#X connect 31 0 13 0;
#X connect 32 0 14 0;
#X connect 33 0 15 0;
#X connect 34 0 16 0;
#X connect 35 0 17 0;
#X connect 36 0 18 0;
#X connect 37 0 19 0;
#X connect 38 0 20 0;
#X connect 39 0 21 0;
#X connect 40 0 41 0;
#X connect 42 0 49 0;
#X connect 42 0 90 0;
#X connect 43 0 29 1;
#X connect 44 0 30 1;
#X connect 45 0 200 0;
#X connect 46 0 45 0;
#X connect 47 0 46 0;
#X connect 48 0 47 0;
#X connect 50 0 201 0;
#X connect 51 0 50 0;
#X connect 52 0 51 0;
#X connect 53 0 202 0;
#X connect 54 0 53 0;
#X connect 55 0 54 0;
#X connect 56 0 203 0;
#X connect 57 0 56 0;
#X connect 58 0 57 0;
#X connect 59 0 204 0;
#X connect 60 0 59 0;
#X connect 61 0 60 0;
#X connect 62 0 205 0;
#X connect 63 0 62 0;
#X connect 64 0 63 0;
#X connect 65 0 210 0;
#X connect 66 0 65 0;
#X connect 67 0 66 0;
#X connect 68 0 209 0;
#X connect 69 0 68 0;
#X connect 70 0 69 0;
#X connect 71 0 208 0;
#X connect 72 0 71 0;
#X connect 73 0 72 0;
#X connect 74 0 207 0;
#X connect 75 0 74 0;
#X connect 76 0 75 0;
#X connect 77 0 206 0;
#X connect 78 0 77 0;
#X connect 79 0 78 0;
#X connect 81 0 82 0;
#X connect 82 0 43 0;
#X connect 82 1 44 0;
#X connect 82 2 189 0;
#X connect 82 3 190 0;
#X connect 82 4 191 0;
#X connect 82 5 192 0;
#X connect 82 6 193 0;
#X connect 82 7 194 0;
#X connect 82 8 195 0;
#X connect 82 9 196 0;
#X connect 82 10 197 0;
#X connect 88 0 82 0;
#X connect 89 0 108 1;
#X connect 90 0 99 0;
#X connect 90 1 98 0;
#X connect 90 2 97 0;
#X connect 90 3 96 0;
#X connect 90 4 95 0;
#X connect 90 5 93 0;
#X connect 90 6 92 0;
#X connect 90 7 91 0;
#X connect 90 8 94 0;
#X connect 90 9 89 0;
#X connect 90 10 102 1;
#X connect 91 0 120 1;
#X connect 92 0 125 1;
#X connect 93 0 132 1;
#X connect 94 0 114 1;
#X connect 95 0 138 1;
#X connect 96 0 144 1;
#X connect 97 0 150 1;
#X connect 98 0 156 1;
#X connect 99 0 162 1;
#X connect 100 0 198 0;
#X connect 101 0 168 0;
#X connect 102 0 104 0;
#X connect 103 0 48 0;
#X connect 103 1 48 1;
#X connect 103 2 102 0;
#X connect 104 0 47 1;
#X connect 105 0 52 0;
#X connect 106 0 250 0;
#X connect 107 0 167 0;
#X connect 108 0 110 0;
#X connect 109 0 105 0;
#X connect 109 1 105 1;
#X connect 109 2 108 0;
#X connect 110 0 52 1;
#X connect 111 0 55 0;
#X connect 112 0 251 0;
#X connect 113 0 169 0;
#X connect 114 0 116 0;
#X connect 115 0 111 0;
#X connect 115 1 111 1;
#X connect 115 2 114 0;
#X connect 116 0 55 1;
#X connect 117 0 58 0;
#X connect 118 0 252 0;
#X connect 119 0 171 0;
#X connect 120 0 122 0;
#X connect 121 0 117 0;
#X connect 121 1 117 1;
#X connect 121 2 120 0;
#X connect 122 0 58 1;
#X connect 123 0 61 0;
#X connect 124 0 253 0;
#X connect 125 0 127 0;
#X connect 126 0 123 0;
#X connect 126 1 123 1;
#X connect 126 2 125 0;
#X connect 127 0 61 1;
#X connect 128 0 255 0;
#X connect 128 1 256 0;
#X connect 128 2 257 0;
#X connect 128 3 258 0;
#X connect 128 4 259 0;
#X connect 128 5 254 0;
#X connect 128 6 253 0;
#X connect 128 7 252 0;
#X connect 128 8 251 0;
#X connect 128 9 250 0;
#X connect 128 10 198 0;
#X connect 129 0 64 0;
#X connect 130 0 254 0;
#X connect 131 0 173 0;
#X connect 132 0 134 0;
#X connect 133 0 129 0;
#X connect 133 1 129 1;
#X connect 133 2 132 0;
#X connect 134 0 64 1;
#X connect 135 0 67 0;
#X connect 136 0 259 0;
#X connect 137 0 174 0;
#X connect 138 0 140 0;
#X connect 139 0 135 0;
#X connect 139 1 135 1;
#X connect 139 2 138 0;
#X connect 140 0 67 1;
#X connect 141 0 70 0;
#X connect 142 0 258 0;
#X connect 143 0 175 0;
#X connect 144 0 146 0;
#X connect 145 0 141 0;
#X connect 145 1 141 1;
#X connect 145 2 144 0;
#X connect 146 0 70 1;
#X connect 147 0 73 0;
#X connect 148 0 257 0;
#X connect 149 0 176 0;
#X connect 150 0 152 0;
#X connect 151 0 147 0;
#X connect 151 1 147 1;
#X connect 151 2 150 0;
#X connect 152 0 73 1;
#X connect 153 0 76 0;
#X connect 154 0 256 0;
#X connect 155 0 177 0;
#X connect 156 0 158 0;
#X connect 157 0 153 0;
#X connect 157 1 153 1;
#X connect 157 2 156 0;
#X connect 158 0 76 1;
#X connect 159 0 79 0;
#X connect 160 0 255 0;
#X connect 161 0 178 0;
#X connect 162 0 164 0;
#X connect 163 0 159 0;
#X connect 163 1 159 1;
#X connect 163 2 162 0;
#X connect 164 0 79 1;
#X connect 165 0 168 1;
#X connect 167 0 109 0;
#X connect 167 0 240 0;
#X connect 168 0 103 0;
#X connect 168 0 239 0;
#X connect 169 0 115 0;
#X connect 169 0 241 0;
#X connect 170 0 167 1;
#X connect 171 0 121 0;
#X connect 171 0 242 0;
#X connect 172 0 126 0;
#X connect 172 0 243 0;
#X connect 173 0 133 0;
#X connect 173 0 244 0;
#X connect 174 0 139 0;
#X connect 174 0 249 0;
#X connect 175 0 145 0;
#X connect 175 0 248 0;
#X connect 176 0 151 0;
#X connect 176 0 247 0;
#X connect 177 0 157 0;
#X connect 177 0 246 0;
#X connect 178 0 163 0;
#X connect 178 0 245 0;
#X connect 179 0 169 1;
#X connect 180 0 171 1;
#X connect 181 0 172 1;
#X connect 182 0 173 1;
#X connect 183 0 178 1;
#X connect 184 0 177 1;
#X connect 185 0 176 1;
#X connect 186 0 175 1;
#X connect 187 0 174 1;
#X connect 188 0 128 0;
#X connect 189 0 31 1;
#X connect 190 0 32 1;
#X connect 191 0 33 1;
#X connect 192 0 34 1;
#X connect 193 0 35 1;
#X connect 194 0 36 1;
#X connect 195 0 37 1;
#X connect 196 0 38 1;
#X connect 197 0 39 1;
#X connect 198 0 101 0;
#X connect 199 0 172 0;
#X connect 200 0 29 0;
#X connect 201 0 30 0;
#X connect 202 0 31 0;
#X connect 203 0 32 0;
#X connect 204 0 33 0;
#X connect 205 0 34 0;
#X connect 206 0 39 0;
#X connect 207 0 38 0;
#X connect 208 0 37 0;
#X connect 209 0 36 0;
#X connect 210 0 35 0;
#X connect 211 0 210 1;
#X connect 212 0 209 1;
#X connect 213 0 208 1;
#X connect 214 0 207 1;
#X connect 215 0 206 1;
#X connect 216 0 205 1;
#X connect 217 0 204 1;
#X connect 218 0 203 1;
#X connect 219 0 202 1;
#X connect 220 0 201 1;
#X connect 221 0 200 1;
#X connect 222 0 223 0;
#X connect 223 0 225 0;
#X connect 223 1 238 0;
#X connect 225 0 226 0;
#X connect 227 0 165 0;
#X connect 228 0 170 0;
#X connect 229 0 179 0;
#X connect 230 0 180 0;
#X connect 231 0 181 0;
#X connect 232 0 182 0;
#X connect 233 0 183 0;
#X connect 234 0 184 0;
#X connect 235 0 185 0;
#X connect 236 0 186 0;
#X connect 237 0 187 0;
#X connect 238 0 224 0;
#X connect 250 0 107 0;
#X connect 251 0 113 0;
#X connect 252 0 119 0;
#X connect 253 0 199 0;
#X connect 254 0 131 0;
#X connect 255 0 161 0;
#X connect 256 0 155 0;
#X connect 257 0 149 0;
#X connect 258 0 143 0;
#X connect 259 0 137 0;
#X restore 470 164 pd c-amp_bajoC4;
#X msg 102 24 50;
#X connect 0 0 1 0;
#X connect 1 0 41 0;
#X connect 2 0 3 0;
#X connect 3 0 41 0;
#X connect 4 0 5 0;
#X connect 5 0 41 0;
#X connect 6 0 7 0;
#X connect 7 0 41 0;
#X connect 8 0 9 0;
#X connect 9 0 41 0;
#X connect 10 0 11 0;
#X connect 11 0 41 0;
#X connect 12 0 13 0;
#X connect 13 0 41 0;
#X connect 14 0 15 0;
#X connect 15 0 41 0;
#X connect 16 0 17 0;
#X connect 17 0 41 0;
#X connect 18 0 19 0;
#X connect 19 0 41 0;
#X connect 20 0 21 0;
#X connect 21 0 41 0;
#X connect 24 0 0 0;
#X connect 25 0 2 0;
#X connect 26 0 4 0;
#X connect 27 0 6 0;
#X connect 28 0 8 0;
#X connect 29 0 10 0;
#X connect 30 0 12 0;
#X connect 31 0 14 0;
#X connect 32 0 16 0;
#X connect 33 0 18 0;
#X connect 34 0 20 0;
#X connect 35 0 34 0;
#X connect 35 1 33 0;
#X connect 35 2 32 0;
#X connect 35 3 31 0;
#X connect 35 4 30 0;
#X connect 35 5 29 0;
#X connect 35 6 28 0;
#X connect 35 7 27 0;
#X connect 35 8 26 0;
#X connect 35 9 25 0;
#X connect 35 10 24 0;
#X connect 36 0 43 0;
#X connect 37 0 42 0;
#X connect 37 1 35 0;
#X connect 38 0 39 0;
#X connect 39 0 37 0;
#X connect 40 0 38 0;
#X connect 41 0 23 0;
#X connect 42 0 1 1;
#X connect 42 1 3 1;
#X connect 42 2 5 1;
#X connect 42 3 7 1;
#X connect 42 4 9 1;
#X connect 42 5 11 1;
#X connect 42 6 13 1;
#X connect 42 7 15 1;
#X connect 42 8 17 1;
#X connect 42 9 19 1;
#X connect 42 10 21 1;
#X connect 43 0 40 0;
#X restore 58 114 pd sintesisCuerda4;
#X obj 57 92 bng 15 250 50 0 empty empty empty 17 7 0 10 -262144 -1
-1;
#X obj 55 70 sel 4;
#X connect 1 0 2 0;
#X connect 2 0 6 0;
#X connect 3 0 0 0;
#X connect 4 0 3 0;
#X connect 5 0 4 0;
#X connect 6 0 5 0;
#X restore 271 162 pd cuerda4;
#X obj 73 227 bng 15 250 50 0 empty empty empty 17 7 0 10 -262144 -1
-1;
#X obj 73 247 s lbok;
#X text 302 88 F2;
#X text 317 111 C2;
#X text 332 138 G1;
#X text 340 161 D1;
#X obj 241 192 hip~ 40;
#X obj 251 377 outlet~ R;
#X obj 231 347 outlet~ L;
#X obj 342 267 * 1.5708;
#X obj 365 304 sin;
#X obj 331 297 cos;
#X floatatom 395 306 5 0 0 0 - - -, f 5;
#X floatatom 331 319 5 0 0 0 - - -, f 5;
#X obj 226 322 *~;
#X obj 256 322 *~;
#X obj 381 240 r lb4;
#X obj 277 14 r lb9;
#X msg 322 13 1432;
#X obj 241 264 hip~ 10;
#X obj 241 241 hip~ 20;
#X obj 241 214 hip~ 30;
#X msg 342 241 0.25;
#X obj 241 290 *~ 0.098;
#X obj 68 122 + 1;
#X obj 68 100 random 4;
#X connect 0 0 1 0;
#X connect 1 0 36 0;
#X connect 3 0 2 0;
#X connect 4 0 5 0;
#X connect 5 0 6 0;
#X connect 6 0 7 0;
#X connect 7 0 17 0;
#X connect 8 0 5 1;
#X connect 9 0 6 1;
#X connect 10 0 7 1;
#X connect 11 0 12 0;
#X connect 17 0 32 0;
#X connect 20 0 21 0;
#X connect 20 0 22 0;
#X connect 21 0 23 0;
#X connect 21 0 26 1;
#X connect 22 0 24 0;
#X connect 22 0 25 1;
#X connect 25 0 19 0;
#X connect 26 0 18 0;
#X connect 27 0 33 0;
#X connect 28 0 29 0;
#X connect 29 0 3 0;
#X connect 30 0 34 0;
#X connect 31 0 30 0;
#X connect 32 0 31 0;
#X connect 33 0 20 0;
#X connect 34 0 25 0;
#X connect 34 0 26 0;
#X connect 35 0 4 0;
#X connect 35 0 8 0;
#X connect 35 0 9 0;
#X connect 35 0 10 0;
#X connect 36 0 35 0;
#X restore 453 583 pd Notas;
#X msg 149 261 789 10 10 1 2 3 4 0 0;
#N canvas 469 51 369 214 lb 0;
#X obj 20 78 t b b;
#X obj 20 100 t b b;
#X obj 35 48 bng 15 250 50 0 empty empty empty 17 7 0 10 -262144 -1
-1;
#X obj 114 20 loadbang;
#X obj 14 23 r lbok;
#X obj 20 123 t b b;
#X obj 20 145 t b b;
#X obj 21 168 t b b;
#X obj 99 78 t b b;
#X obj 99 101 t b b;
#X obj 99 124 t b b;
#X obj 99 147 t b b;
#X obj 58 79 s lb1;
#X obj 58 101 s lb2;
#X obj 58 124 s lb3;
#X obj 59 146 s lb4;
#X obj 59 168 s lb5;
#X obj 137 79 s lb6;
#X obj 137 102 s lb7;
#X obj 137 125 s lb8;
#X obj 137 147 s lb9;
#X obj 99 169 t b b;
#X obj 137 169 s lb9;
#X obj 177 78 t b b;
#X obj 177 100 t b b;
#X obj 177 123 t b b;
#X obj 177 145 t b b;
#X obj 177 168 t b b;
#X obj 261 78 t b b;
#X obj 261 101 t b b;
#X obj 261 124 t b b;
#X obj 261 147 t b b;
#X obj 260 169 t b b;
#X obj 216 79 s lb10;
#X obj 216 101 s lb11;
#X obj 216 124 s lb12;
#X obj 216 146 s lb13;
#X obj 216 168 s lb14;
#X obj 299 78 s lb15;
#X obj 299 102 s lb16;
#X obj 298 125 s lb17;
#X obj 298 147 s lb18;
#X obj 299 169 s lb19;
#X msg 225 18 \; pd dsp 1 \;;
#X obj 114 42 t b b;
#X connect 0 0 1 0;
#X connect 0 1 12 0;
#X connect 1 0 5 0;
#X connect 1 1 13 0;
#X connect 2 0 0 0;
#X connect 3 0 44 0;
#X connect 4 0 2 0;
#X connect 5 0 6 0;
#X connect 5 1 14 0;
#X connect 6 0 7 0;
#X connect 6 1 15 0;
#X connect 7 0 8 0;
#X connect 7 1 16 0;
#X connect 8 0 9 0;
#X connect 8 1 17 0;
#X connect 9 0 10 0;
#X connect 9 1 18 0;
#X connect 10 0 11 0;
#X connect 10 1 19 0;
#X connect 11 0 21 0;
#X connect 11 1 20 0;
#X connect 21 0 23 0;
#X connect 21 1 22 0;
#X connect 23 0 24 0;
#X connect 23 1 33 0;
#X connect 24 0 25 0;
#X connect 24 1 34 0;
#X connect 25 0 26 0;
#X connect 25 1 35 0;
#X connect 26 0 27 0;
#X connect 26 1 36 0;
#X connect 27 0 28 0;
#X connect 27 1 37 0;
#X connect 28 0 29 0;
#X connect 28 1 38 0;
#X connect 29 0 30 0;
#X connect 29 1 39 0;
#X connect 30 0 31 0;
#X connect 30 1 40 0;
#X connect 31 0 32 0;
#X connect 31 1 41 0;
#X connect 32 1 42 0;
#X connect 44 0 2 0;
#X connect 44 1 43 0;
#X restore 698 11 pd lb;
#X text 212 204 ejemplo 1 (hacer click sobre mensaje);
#X text 292 264 ejemplo 3 (hacer click sobre mensaje);
#X text 252 234 ejemplo 2 (hacer click sobre mensaje);
#X msg 120 234 678 5 4 1 1 1 2 1 0;
#X text 18 69 4to número (x+1) - fx = Valor de la ficha \; a cada
ficha se le asigna una etiqueta \; f1= ficha 1 \, f2= ficha 2 \, (cada
ficha puede tener el valor que sea).;
#X connect 0 0 55 0;
#X connect 0 0 56 0;
#X connect 1 0 13 0;
#X connect 2 0 35 0;
#X connect 3 0 36 0;
#X connect 10 0 15 0;
#X connect 10 0 38 0;
#X connect 11 0 10 0;
#X connect 12 0 10 1;
#X connect 12 0 14 0;
#X connect 16 0 17 0;
#X connect 16 0 19 0;
#X connect 17 0 16 1;
#X connect 18 0 16 1;
#X connect 19 0 20 0;
#X connect 20 0 46 0;
#X connect 20 0 18 0;
#X connect 21 0 25 0;
#X connect 21 0 37 0;
#X connect 22 0 21 0;
#X connect 23 0 21 1;
#X connect 23 0 24 0;
#X connect 26 0 27 0;
#X connect 26 0 29 0;
#X connect 27 0 26 1;
#X connect 28 0 26 1;
#X connect 29 0 30 0;
#X connect 30 0 28 0;
#X connect 30 0 44 0;
#X connect 31 0 20 1;
#X connect 31 0 34 0;
#X connect 32 0 30 1;
#X connect 32 0 33 0;
#X connect 37 0 57 0;
#X connect 37 1 26 0;
#X connect 38 0 42 0;
#X connect 38 1 16 0;
#X connect 40 0 39 0;
#X connect 41 0 39 1;
#X connect 42 0 40 1;
#X connect 42 1 41 1;
#X connect 43 0 22 0;
#X connect 44 0 22 0;
#X connect 45 0 11 0;
#X connect 46 0 11 0;
#X connect 47 0 48 0;
#X connect 48 0 43 0;
#X connect 48 1 45 0;
#X connect 49 0 1 0;
#X connect 49 1 2 0;
#X connect 49 2 3 0;
#X connect 49 3 4 0;
#X connect 49 4 5 0;
#X connect 49 5 6 0;
#X connect 49 6 7 0;
#X connect 49 7 8 0;
#X connect 49 8 9 0;
#X connect 51 0 55 0;
#X connect 51 0 56 0;
#X connect 54 0 47 0;
#X connect 55 0 49 0;
#X connect 55 1 54 0;
#X connect 56 0 55 0;
#X connect 57 0 40 0;
#X connect 57 1 41 0;
#X connect 58 0 55 0;
#X connect 58 0 56 0;
#X connect 63 0 55 0;
#X connect 63 0 56 0;
